G04 Layer: BottomSilkLayer*
G04 EasyEDA v6.4.25, 2021-12-02T14:12:09+11:00*
G04 a67cddfb3fce44daa9051d46cbbcc19f,10*
G04 Gerber Generator version 0.2*
G04 Scale: 100 percent, Rotated: No, Reflected: No *
G04 Dimensions in millimeters *
G04 leading zeros omitted , absolute positions ,4 integer and 5 decimal *
%FSLAX45Y45*%
%MOMM*%

%ADD16C,0.2032*%

%LPD*%
D16*
X468180Y900910D02*
G01*
X468180Y805454D01*
X499998Y900910D02*
G01*
X436361Y900910D01*
X406361Y900910D02*
G01*
X406361Y805454D01*
X376361Y900910D02*
G01*
X376361Y805454D01*
X376361Y900910D02*
G01*
X335452Y900910D01*
X321818Y896363D01*
X317271Y891819D01*
X312727Y882728D01*
X312727Y869091D01*
X317271Y860000D01*
X321818Y855454D01*
X335452Y850910D01*
X376361Y850910D01*
X1136362Y887272D02*
G01*
X1145453Y896363D01*
X1159090Y900910D01*
X1177272Y900910D01*
X1190909Y896363D01*
X1200000Y887272D01*
X1200000Y878182D01*
X1195453Y869091D01*
X1190909Y864547D01*
X1181818Y860000D01*
X1154546Y850910D01*
X1145453Y846363D01*
X1140909Y841819D01*
X1136362Y832728D01*
X1136362Y819091D01*
X1145453Y810000D01*
X1159090Y805454D01*
X1177272Y805454D01*
X1190909Y810000D01*
X1200000Y819091D01*
X1106363Y900910D02*
G01*
X1106363Y805454D01*
X1042728Y900910D02*
G01*
X1042728Y805454D01*
X1106363Y855454D02*
G01*
X1042728Y855454D01*
X1012728Y900910D02*
G01*
X1012728Y832728D01*
X1008181Y819091D01*
X999091Y810000D01*
X985453Y805454D01*
X976363Y805454D01*
X962728Y810000D01*
X953635Y819091D01*
X949091Y832728D01*
X949091Y900910D01*
X919091Y900910D02*
G01*
X919091Y805454D01*
X919091Y900910D02*
G01*
X855454Y805454D01*
X855454Y900910D02*
G01*
X855454Y805454D01*
X793635Y900910D02*
G01*
X793635Y805454D01*
X825454Y900910D02*
G01*
X761817Y900910D01*
X1836364Y887272D02*
G01*
X1845454Y896363D01*
X1859092Y900910D01*
X1877273Y900910D01*
X1890910Y896363D01*
X1900001Y887272D01*
X1900001Y878182D01*
X1895454Y869091D01*
X1890910Y864547D01*
X1881819Y860000D01*
X1854547Y850910D01*
X1845454Y846363D01*
X1840910Y841819D01*
X1836364Y832728D01*
X1836364Y819091D01*
X1845454Y810000D01*
X1859092Y805454D01*
X1877273Y805454D01*
X1890910Y810000D01*
X1900001Y819091D01*
X1806364Y900910D02*
G01*
X1806364Y805454D01*
X1806364Y805454D02*
G01*
X1751820Y805454D01*
X1721820Y900910D02*
G01*
X1721820Y805454D01*
X1721820Y900910D02*
G01*
X1662729Y900910D01*
X1721820Y855454D02*
G01*
X1685455Y855454D01*
X1721820Y805454D02*
G01*
X1662729Y805454D01*
X1632729Y900910D02*
G01*
X1632729Y805454D01*
X1632729Y900910D02*
G01*
X1573636Y900910D01*
X1632729Y855454D02*
G01*
X1596364Y855454D01*
X1632729Y805454D02*
G01*
X1573636Y805454D01*
X1543636Y900910D02*
G01*
X1507274Y805454D01*
X1470911Y900910D02*
G01*
X1507274Y805454D01*
X1440911Y900910D02*
G01*
X1440911Y805454D01*
X1440911Y900910D02*
G01*
X1381818Y900910D01*
X1440911Y855454D02*
G01*
X1404546Y855454D01*
X1440911Y805454D02*
G01*
X1381818Y805454D01*
X1786361Y2237272D02*
G01*
X1795452Y2246363D01*
X1809089Y2250909D01*
X1827270Y2250909D01*
X1840908Y2246363D01*
X1849998Y2237272D01*
X1849998Y2228181D01*
X1845452Y2219091D01*
X1840908Y2214547D01*
X1831817Y2210000D01*
X1804545Y2200910D01*
X1795452Y2196363D01*
X1790908Y2191819D01*
X1786361Y2182728D01*
X1786361Y2169091D01*
X1795452Y2160000D01*
X1809089Y2155454D01*
X1827270Y2155454D01*
X1840908Y2160000D01*
X1849998Y2169091D01*
X1756361Y2250909D02*
G01*
X1756361Y2155454D01*
X1756361Y2155454D02*
G01*
X1701817Y2155454D01*
X1671817Y2250909D02*
G01*
X1671817Y2155454D01*
X1671817Y2250909D02*
G01*
X1612727Y2250909D01*
X1671817Y2205454D02*
G01*
X1635452Y2205454D01*
X1671817Y2155454D02*
G01*
X1612727Y2155454D01*
X1582727Y2250909D02*
G01*
X1582727Y2155454D01*
X1582727Y2250909D02*
G01*
X1523634Y2250909D01*
X1582727Y2205454D02*
G01*
X1546362Y2205454D01*
X1582727Y2155454D02*
G01*
X1523634Y2155454D01*
X1493634Y2250909D02*
G01*
X1457271Y2155454D01*
X1420909Y2250909D02*
G01*
X1457271Y2155454D01*
X1390909Y2250909D02*
G01*
X1390909Y2155454D01*
X1390909Y2250909D02*
G01*
X1331815Y2250909D01*
X1390909Y2205454D02*
G01*
X1354543Y2205454D01*
X1390909Y2155454D02*
G01*
X1331815Y2155454D01*
X1086360Y2237272D02*
G01*
X1095451Y2246363D01*
X1109088Y2250909D01*
X1127269Y2250909D01*
X1140907Y2246363D01*
X1149997Y2237272D01*
X1149997Y2228181D01*
X1145451Y2219091D01*
X1140907Y2214547D01*
X1131816Y2210000D01*
X1104544Y2200910D01*
X1095451Y2196363D01*
X1090907Y2191819D01*
X1086360Y2182728D01*
X1086360Y2169091D01*
X1095451Y2160000D01*
X1109088Y2155454D01*
X1127269Y2155454D01*
X1140907Y2160000D01*
X1149997Y2169091D01*
X1056360Y2250909D02*
G01*
X1056360Y2155454D01*
X992725Y2250909D02*
G01*
X992725Y2155454D01*
X1056360Y2205454D02*
G01*
X992725Y2205454D01*
X962726Y2250909D02*
G01*
X962726Y2182728D01*
X958179Y2169091D01*
X949088Y2160000D01*
X935451Y2155454D01*
X926360Y2155454D01*
X912726Y2160000D01*
X903632Y2169091D01*
X899088Y2182728D01*
X899088Y2250909D01*
X869088Y2250909D02*
G01*
X869088Y2155454D01*
X869088Y2250909D02*
G01*
X805451Y2155454D01*
X805451Y2250909D02*
G01*
X805451Y2155454D01*
X743633Y2250909D02*
G01*
X743633Y2155454D01*
X775451Y2250909D02*
G01*
X711814Y2250909D01*
X418177Y2250909D02*
G01*
X418177Y2155454D01*
X449996Y2250909D02*
G01*
X386359Y2250909D01*
X356359Y2250909D02*
G01*
X356359Y2155454D01*
X326359Y2250909D02*
G01*
X326359Y2155454D01*
X326359Y2250909D02*
G01*
X285450Y2250909D01*
X271815Y2246363D01*
X267268Y2241819D01*
X262724Y2232728D01*
X262724Y2219091D01*
X267268Y2210000D01*
X271815Y2205454D01*
X285450Y2200910D01*
X326359Y2200910D01*
X1786364Y3287273D02*
G01*
X1795454Y3296363D01*
X1809092Y3300910D01*
X1827273Y3300910D01*
X1840910Y3296363D01*
X1850001Y3287273D01*
X1850001Y3278182D01*
X1845454Y3269091D01*
X1840910Y3264547D01*
X1831820Y3260001D01*
X1804548Y3250910D01*
X1795454Y3246363D01*
X1790910Y3241819D01*
X1786364Y3232729D01*
X1786364Y3219091D01*
X1795454Y3210001D01*
X1809092Y3205454D01*
X1827273Y3205454D01*
X1840910Y3210001D01*
X1850001Y3219091D01*
X1756364Y3300910D02*
G01*
X1756364Y3205454D01*
X1756364Y3205454D02*
G01*
X1701820Y3205454D01*
X1671820Y3300910D02*
G01*
X1671820Y3205454D01*
X1671820Y3300910D02*
G01*
X1612729Y3300910D01*
X1671820Y3255454D02*
G01*
X1635455Y3255454D01*
X1671820Y3205454D02*
G01*
X1612729Y3205454D01*
X1582729Y3300910D02*
G01*
X1582729Y3205454D01*
X1582729Y3300910D02*
G01*
X1523636Y3300910D01*
X1582729Y3255454D02*
G01*
X1546364Y3255454D01*
X1582729Y3205454D02*
G01*
X1523636Y3205454D01*
X1493636Y3300910D02*
G01*
X1457274Y3205454D01*
X1420911Y3300910D02*
G01*
X1457274Y3205454D01*
X1390911Y3300910D02*
G01*
X1390911Y3205454D01*
X1390911Y3300910D02*
G01*
X1331818Y3300910D01*
X1390911Y3255454D02*
G01*
X1354546Y3255454D01*
X1390911Y3205454D02*
G01*
X1331818Y3205454D01*
X1086363Y3287273D02*
G01*
X1095453Y3296363D01*
X1109090Y3300910D01*
X1127272Y3300910D01*
X1140909Y3296363D01*
X1150000Y3287273D01*
X1150000Y3278182D01*
X1145453Y3269091D01*
X1140909Y3264547D01*
X1131818Y3260001D01*
X1104546Y3250910D01*
X1095453Y3246363D01*
X1090909Y3241819D01*
X1086363Y3232729D01*
X1086363Y3219091D01*
X1095453Y3210001D01*
X1109090Y3205454D01*
X1127272Y3205454D01*
X1140909Y3210001D01*
X1150000Y3219091D01*
X1056363Y3300910D02*
G01*
X1056363Y3205454D01*
X992728Y3300910D02*
G01*
X992728Y3205454D01*
X1056363Y3255454D02*
G01*
X992728Y3255454D01*
X962728Y3300910D02*
G01*
X962728Y3232729D01*
X958181Y3219091D01*
X949091Y3210001D01*
X935454Y3205454D01*
X926363Y3205454D01*
X912728Y3210001D01*
X903635Y3219091D01*
X899091Y3232729D01*
X899091Y3300910D01*
X869091Y3300910D02*
G01*
X869091Y3205454D01*
X869091Y3300910D02*
G01*
X805454Y3205454D01*
X805454Y3300910D02*
G01*
X805454Y3205454D01*
X743635Y3300910D02*
G01*
X743635Y3205454D01*
X775454Y3300910D02*
G01*
X711817Y3300910D01*
X418180Y3300910D02*
G01*
X418180Y3205454D01*
X449999Y3300910D02*
G01*
X386361Y3300910D01*
X356362Y3300910D02*
G01*
X356362Y3205454D01*
X326362Y3300910D02*
G01*
X326362Y3205454D01*
X326362Y3300910D02*
G01*
X285452Y3300910D01*
X271818Y3296363D01*
X267271Y3291819D01*
X262727Y3282729D01*
X262727Y3269091D01*
X267271Y3260001D01*
X271818Y3255454D01*
X285452Y3250910D01*
X326362Y3250910D01*
X1636361Y5587271D02*
G01*
X1645452Y5596361D01*
X1659089Y5600908D01*
X1677271Y5600908D01*
X1690908Y5596361D01*
X1699999Y5587271D01*
X1699999Y5578180D01*
X1695452Y5569089D01*
X1690908Y5564545D01*
X1681817Y5559999D01*
X1654545Y5550908D01*
X1645452Y5546361D01*
X1640908Y5541817D01*
X1636361Y5532727D01*
X1636361Y5519089D01*
X1645452Y5509999D01*
X1659089Y5505452D01*
X1677271Y5505452D01*
X1690908Y5509999D01*
X1699999Y5519089D01*
X1606362Y5600908D02*
G01*
X1606362Y5505452D01*
X1606362Y5505452D02*
G01*
X1551818Y5505452D01*
X1521818Y5600908D02*
G01*
X1521818Y5505452D01*
X1521818Y5600908D02*
G01*
X1462727Y5600908D01*
X1521818Y5555452D02*
G01*
X1485452Y5555452D01*
X1521818Y5505452D02*
G01*
X1462727Y5505452D01*
X1432727Y5600908D02*
G01*
X1432727Y5505452D01*
X1432727Y5600908D02*
G01*
X1373634Y5600908D01*
X1432727Y5555452D02*
G01*
X1396362Y5555452D01*
X1432727Y5505452D02*
G01*
X1373634Y5505452D01*
X1343634Y5600908D02*
G01*
X1307271Y5505452D01*
X1270909Y5600908D02*
G01*
X1307271Y5505452D01*
X1240909Y5600908D02*
G01*
X1240909Y5505452D01*
X1240909Y5600908D02*
G01*
X1181816Y5600908D01*
X1240909Y5555452D02*
G01*
X1204544Y5555452D01*
X1240909Y5505452D02*
G01*
X1181816Y5505452D01*
X268180Y7000910D02*
G01*
X268180Y6905454D01*
X299999Y7000910D02*
G01*
X236362Y7000910D01*
X206362Y7000910D02*
G01*
X206362Y6905454D01*
X176362Y7000910D02*
G01*
X176362Y6905454D01*
X176362Y7000910D02*
G01*
X135453Y7000910D01*
X121818Y6996363D01*
X117271Y6991819D01*
X112727Y6982729D01*
X112727Y6969091D01*
X117271Y6960001D01*
X121818Y6955454D01*
X135453Y6950910D01*
X176362Y6950910D01*
X536361Y8537272D02*
G01*
X545452Y8546363D01*
X559089Y8550910D01*
X577270Y8550910D01*
X590908Y8546363D01*
X599998Y8537272D01*
X599998Y8528182D01*
X595452Y8519091D01*
X590908Y8514547D01*
X581817Y8510000D01*
X554545Y8500910D01*
X545452Y8496363D01*
X540908Y8491819D01*
X536361Y8482728D01*
X536361Y8469091D01*
X545452Y8460000D01*
X559089Y8455454D01*
X577270Y8455454D01*
X590908Y8460000D01*
X599998Y8469091D01*
X506361Y8550910D02*
G01*
X506361Y8455454D01*
X506361Y8455454D02*
G01*
X451817Y8455454D01*
X421817Y8550910D02*
G01*
X421817Y8455454D01*
X421817Y8550910D02*
G01*
X362727Y8550910D01*
X421817Y8505454D02*
G01*
X385452Y8505454D01*
X421817Y8455454D02*
G01*
X362727Y8455454D01*
X332727Y8550910D02*
G01*
X332727Y8455454D01*
X332727Y8550910D02*
G01*
X273634Y8550910D01*
X332727Y8505454D02*
G01*
X296362Y8505454D01*
X332727Y8455454D02*
G01*
X273634Y8455454D01*
X243634Y8550910D02*
G01*
X207271Y8455454D01*
X170908Y8550910D02*
G01*
X207271Y8455454D01*
X140909Y8550910D02*
G01*
X140909Y8455454D01*
X140909Y8550910D02*
G01*
X81815Y8550910D01*
X140909Y8505454D02*
G01*
X104543Y8505454D01*
X140909Y8455454D02*
G01*
X81815Y8455454D01*
X486361Y7537272D02*
G01*
X495452Y7546362D01*
X509089Y7550909D01*
X527270Y7550909D01*
X540908Y7546362D01*
X549998Y7537272D01*
X549998Y7528181D01*
X545452Y7519090D01*
X540908Y7514546D01*
X531817Y7510000D01*
X504545Y7500909D01*
X495452Y7496362D01*
X490908Y7491818D01*
X486361Y7482728D01*
X486361Y7469090D01*
X495452Y7460000D01*
X509089Y7455453D01*
X527270Y7455453D01*
X540908Y7460000D01*
X549998Y7469090D01*
X456361Y7550909D02*
G01*
X456361Y7455453D01*
X392727Y7550909D02*
G01*
X392727Y7455453D01*
X456361Y7505453D02*
G01*
X392727Y7505453D01*
X362727Y7550909D02*
G01*
X362727Y7482728D01*
X358180Y7469090D01*
X349089Y7460000D01*
X335452Y7455453D01*
X326362Y7455453D01*
X312727Y7460000D01*
X303634Y7469090D01*
X299090Y7482728D01*
X299090Y7550909D01*
X269090Y7550909D02*
G01*
X269090Y7455453D01*
X269090Y7550909D02*
G01*
X205452Y7455453D01*
X205452Y7550909D02*
G01*
X205452Y7455453D01*
X143634Y7550909D02*
G01*
X143634Y7455453D01*
X175453Y7550909D02*
G01*
X111815Y7550909D01*
X568180Y8050908D02*
G01*
X568180Y7955452D01*
X599998Y8050908D02*
G01*
X536361Y8050908D01*
X506361Y8050908D02*
G01*
X506361Y7955452D01*
X476361Y8050908D02*
G01*
X476361Y7955452D01*
X476361Y8050908D02*
G01*
X435452Y8050908D01*
X421817Y8046361D01*
X417271Y8041817D01*
X412727Y8032727D01*
X412727Y8019089D01*
X417271Y8009999D01*
X421817Y8005452D01*
X435452Y8000908D01*
X476361Y8000908D01*
X1749089Y8049999D02*
G01*
X1844545Y8013636D01*
X1749089Y7977271D02*
G01*
X1844545Y8013636D01*
X1808180Y7947271D02*
G01*
X1808180Y7892727D01*
X1799089Y7892727D01*
X1789998Y7897271D01*
X1785452Y7901818D01*
X1780908Y7910908D01*
X1780908Y7924543D01*
X1785452Y7933636D01*
X1794545Y7942727D01*
X1808180Y7947271D01*
X1817270Y7947271D01*
X1830908Y7942727D01*
X1839998Y7933636D01*
X1844545Y7924543D01*
X1844545Y7910908D01*
X1839998Y7901818D01*
X1830908Y7892727D01*
X1780908Y7862727D02*
G01*
X1844545Y7862727D01*
X1808180Y7862727D02*
G01*
X1794545Y7858180D01*
X1785452Y7849090D01*
X1780908Y7839999D01*
X1780908Y7826362D01*
X1794545Y7746362D02*
G01*
X1785452Y7750909D01*
X1780908Y7764543D01*
X1780908Y7778181D01*
X1785452Y7791818D01*
X1794545Y7796362D01*
X1803636Y7791818D01*
X1808180Y7782727D01*
X1812726Y7759999D01*
X1817270Y7750909D01*
X1826361Y7746362D01*
X1830908Y7746362D01*
X1839998Y7750909D01*
X1844545Y7764543D01*
X1844545Y7778181D01*
X1839998Y7791818D01*
X1830908Y7796362D01*
X1749089Y7716362D02*
G01*
X1753636Y7711818D01*
X1749089Y7707271D01*
X1744543Y7711818D01*
X1749089Y7716362D01*
X1780908Y7711818D02*
G01*
X1844545Y7711818D01*
X1780908Y7654544D02*
G01*
X1785452Y7663634D01*
X1794545Y7672725D01*
X1808180Y7677271D01*
X1817270Y7677271D01*
X1830908Y7672725D01*
X1839998Y7663634D01*
X1844545Y7654544D01*
X1844545Y7640909D01*
X1839998Y7631816D01*
X1830908Y7622725D01*
X1817270Y7618181D01*
X1808180Y7618181D01*
X1794545Y7622725D01*
X1785452Y7631816D01*
X1780908Y7640909D01*
X1780908Y7654544D01*
X1780908Y7588181D02*
G01*
X1844545Y7588181D01*
X1799089Y7588181D02*
G01*
X1785452Y7574544D01*
X1780908Y7565453D01*
X1780908Y7551816D01*
X1785452Y7542725D01*
X1799089Y7538181D01*
X1844545Y7538181D01*
X1767271Y7438181D02*
G01*
X1762726Y7429091D01*
X1749089Y7415453D01*
X1844545Y7415453D01*
X1821817Y7380907D02*
G01*
X1826361Y7385453D01*
X1830908Y7380907D01*
X1826361Y7376363D01*
X1821817Y7380907D01*
X1749089Y7319091D02*
G01*
X1753636Y7332726D01*
X1767271Y7341816D01*
X1789998Y7346363D01*
X1803636Y7346363D01*
X1826361Y7341816D01*
X1839998Y7332726D01*
X1844545Y7319091D01*
X1844545Y7309998D01*
X1839998Y7296363D01*
X1826361Y7287272D01*
X1803636Y7282726D01*
X1789998Y7282726D01*
X1767271Y7287272D01*
X1753636Y7296363D01*
X1749089Y7309998D01*
X1749089Y7319091D01*
X1821817Y7248182D02*
G01*
X1826361Y7252726D01*
X1830908Y7248182D01*
X1826361Y7243635D01*
X1821817Y7248182D01*
X1749089Y7186363D02*
G01*
X1753636Y7199998D01*
X1767271Y7209088D01*
X1789998Y7213635D01*
X1803636Y7213635D01*
X1826361Y7209088D01*
X1839998Y7199998D01*
X1844545Y7186363D01*
X1844545Y7177272D01*
X1839998Y7163635D01*
X1826361Y7154545D01*
X1803636Y7149998D01*
X1789998Y7149998D01*
X1767271Y7154545D01*
X1753636Y7163635D01*
X1749089Y7177272D01*
X1749089Y7186363D01*
X1499090Y8463638D02*
G01*
X1594545Y8500000D01*
X1499090Y8463638D02*
G01*
X1594545Y8427272D01*
X1562727Y8486363D02*
G01*
X1562727Y8440910D01*
X1530908Y8397273D02*
G01*
X1576362Y8397273D01*
X1589999Y8392728D01*
X1594545Y8383638D01*
X1594545Y8370001D01*
X1589999Y8360910D01*
X1576362Y8347273D01*
X1530908Y8347273D02*
G01*
X1594545Y8347273D01*
X1499090Y8262729D02*
G01*
X1594545Y8262729D01*
X1544546Y8262729D02*
G01*
X1535452Y8271819D01*
X1530908Y8280910D01*
X1530908Y8294545D01*
X1535452Y8303635D01*
X1544546Y8312729D01*
X1558180Y8317273D01*
X1567271Y8317273D01*
X1580908Y8312729D01*
X1589999Y8303635D01*
X1594545Y8294545D01*
X1594545Y8280910D01*
X1589999Y8271819D01*
X1580908Y8262729D01*
X1499090Y8232729D02*
G01*
X1503636Y8228182D01*
X1499090Y8223636D01*
X1494543Y8228182D01*
X1499090Y8232729D01*
X1530908Y8228182D02*
G01*
X1594545Y8228182D01*
X1530908Y8170910D02*
G01*
X1535452Y8180001D01*
X1544546Y8189092D01*
X1558180Y8193636D01*
X1567271Y8193636D01*
X1580908Y8189092D01*
X1589999Y8180001D01*
X1594545Y8170910D01*
X1594545Y8157273D01*
X1589999Y8148182D01*
X1580908Y8139092D01*
X1567271Y8134545D01*
X1558180Y8134545D01*
X1544546Y8139092D01*
X1535452Y8148182D01*
X1530908Y8157273D01*
X1530908Y8170910D01*
X1544546Y7980001D02*
G01*
X1535452Y7989092D01*
X1530908Y7998183D01*
X1530908Y8011817D01*
X1535452Y8020911D01*
X1544546Y8030001D01*
X1558180Y8034545D01*
X1567271Y8034545D01*
X1580908Y8030001D01*
X1589999Y8020911D01*
X1594545Y8011817D01*
X1594545Y7998183D01*
X1589999Y7989092D01*
X1580908Y7980001D01*
X1530908Y7927273D02*
G01*
X1535452Y7936364D01*
X1544546Y7945455D01*
X1558180Y7950001D01*
X1567271Y7950001D01*
X1580908Y7945455D01*
X1589999Y7936364D01*
X1594545Y7927273D01*
X1594545Y7913636D01*
X1589999Y7904546D01*
X1580908Y7895455D01*
X1567271Y7890908D01*
X1558180Y7890908D01*
X1544546Y7895455D01*
X1535452Y7904546D01*
X1530908Y7913636D01*
X1530908Y7927273D01*
X1530908Y7860908D02*
G01*
X1594545Y7860908D01*
X1549090Y7860908D02*
G01*
X1535452Y7847274D01*
X1530908Y7838183D01*
X1530908Y7824546D01*
X1535452Y7815455D01*
X1549090Y7810908D01*
X1594545Y7810908D01*
X1530908Y7780909D02*
G01*
X1594545Y7780909D01*
X1549090Y7780909D02*
G01*
X1535452Y7767274D01*
X1530908Y7758183D01*
X1530908Y7744546D01*
X1535452Y7735455D01*
X1549090Y7730909D01*
X1594545Y7730909D01*
X1558180Y7700909D02*
G01*
X1558180Y7646365D01*
X1549090Y7646365D01*
X1539999Y7650909D01*
X1535452Y7655455D01*
X1530908Y7664546D01*
X1530908Y7678183D01*
X1535452Y7687274D01*
X1544546Y7696365D01*
X1558180Y7700909D01*
X1567271Y7700909D01*
X1580908Y7696365D01*
X1589999Y7687274D01*
X1594545Y7678183D01*
X1594545Y7664546D01*
X1589999Y7655455D01*
X1580908Y7646365D01*
X1544546Y7561818D02*
G01*
X1535452Y7570909D01*
X1530908Y7580000D01*
X1530908Y7593637D01*
X1535452Y7602728D01*
X1544546Y7611818D01*
X1558180Y7616365D01*
X1567271Y7616365D01*
X1580908Y7611818D01*
X1589999Y7602728D01*
X1594545Y7593637D01*
X1594545Y7580000D01*
X1589999Y7570909D01*
X1580908Y7561818D01*
X1499090Y7518181D02*
G01*
X1576362Y7518181D01*
X1589999Y7513637D01*
X1594545Y7504546D01*
X1594545Y7495456D01*
X1530908Y7531818D02*
G01*
X1530908Y7500000D01*
X1530908Y7442728D02*
G01*
X1535452Y7451818D01*
X1544546Y7460909D01*
X1558180Y7465456D01*
X1567271Y7465456D01*
X1580908Y7460909D01*
X1589999Y7451818D01*
X1594545Y7442728D01*
X1594545Y7429091D01*
X1589999Y7420000D01*
X1580908Y7410909D01*
X1567271Y7406365D01*
X1558180Y7406365D01*
X1544546Y7410909D01*
X1535452Y7420000D01*
X1530908Y7429091D01*
X1530908Y7442728D01*
X1530908Y7376363D02*
G01*
X1594545Y7376363D01*
X1558180Y7376363D02*
G01*
X1544546Y7371819D01*
X1535452Y7362728D01*
X1530908Y7353637D01*
X1530908Y7340000D01*
X1499090Y7240000D02*
G01*
X1594545Y7240000D01*
X1544546Y7240000D02*
G01*
X1535452Y7230910D01*
X1530908Y7221819D01*
X1530908Y7208182D01*
X1535452Y7199091D01*
X1544546Y7190000D01*
X1558180Y7185454D01*
X1567271Y7185454D01*
X1580908Y7190000D01*
X1589999Y7199091D01*
X1594545Y7208182D01*
X1594545Y7221819D01*
X1589999Y7230910D01*
X1580908Y7240000D01*
X1530908Y7155454D02*
G01*
X1594545Y7155454D01*
X1558180Y7155454D02*
G01*
X1544546Y7150910D01*
X1535452Y7141819D01*
X1530908Y7132728D01*
X1530908Y7119091D01*
X1558180Y7089091D02*
G01*
X1558180Y7034545D01*
X1549090Y7034545D01*
X1539999Y7039091D01*
X1535452Y7043635D01*
X1530908Y7052729D01*
X1530908Y7066363D01*
X1535452Y7075454D01*
X1544546Y7084545D01*
X1558180Y7089091D01*
X1567271Y7089091D01*
X1580908Y7084545D01*
X1589999Y7075454D01*
X1594545Y7066363D01*
X1594545Y7052729D01*
X1589999Y7043635D01*
X1580908Y7034545D01*
X1530908Y6950001D02*
G01*
X1594545Y6950001D01*
X1544546Y6950001D02*
G01*
X1535452Y6959092D01*
X1530908Y6968182D01*
X1530908Y6981819D01*
X1535452Y6990910D01*
X1544546Y7000001D01*
X1558180Y7004545D01*
X1567271Y7004545D01*
X1580908Y7000001D01*
X1589999Y6990910D01*
X1594545Y6981819D01*
X1594545Y6968182D01*
X1589999Y6959092D01*
X1580908Y6950001D01*
X1499090Y6920001D02*
G01*
X1594545Y6920001D01*
X1530908Y6874545D02*
G01*
X1576362Y6920001D01*
X1558180Y6901820D02*
G01*
X1594545Y6870001D01*
X1530908Y6817273D02*
G01*
X1535452Y6826364D01*
X1544546Y6835454D01*
X1558180Y6840001D01*
X1567271Y6840001D01*
X1580908Y6835454D01*
X1589999Y6826364D01*
X1594545Y6817273D01*
X1594545Y6803636D01*
X1589999Y6794545D01*
X1580908Y6785455D01*
X1567271Y6780911D01*
X1558180Y6780911D01*
X1544546Y6785455D01*
X1535452Y6794545D01*
X1530908Y6803636D01*
X1530908Y6817273D01*
X1530908Y6750911D02*
G01*
X1576362Y6750911D01*
X1589999Y6746364D01*
X1594545Y6737273D01*
X1594545Y6723636D01*
X1589999Y6714545D01*
X1576362Y6700908D01*
X1530908Y6700908D02*
G01*
X1594545Y6700908D01*
X1499090Y6657273D02*
G01*
X1576362Y6657273D01*
X1589999Y6652727D01*
X1594545Y6643636D01*
X1594545Y6634546D01*
X1530908Y6670908D02*
G01*
X1530908Y6639092D01*
M02*
