G04 Layer: TopSilkLayer*
G04 EasyEDA v6.4.25, 2021-12-02T14:12:09+11:00*
G04 a67cddfb3fce44daa9051d46cbbcc19f,10*
G04 Gerber Generator version 0.2*
G04 Scale: 100 percent, Rotated: No, Reflected: No *
G04 Dimensions in millimeters *
G04 leading zeros omitted , absolute positions ,4 integer and 5 decimal *
%FSLAX45Y45*%
%MOMM*%

%ADD10C,0.2540*%
%ADD16C,0.2032*%

%LPD*%
D16*
X1463547Y887298D02*
G01*
X1454657Y896442D01*
X1440942Y901014D01*
X1422654Y901014D01*
X1409192Y896442D01*
X1400047Y887298D01*
X1400047Y878154D01*
X1404620Y869010D01*
X1409192Y864438D01*
X1418081Y860120D01*
X1445513Y850976D01*
X1454657Y846404D01*
X1458976Y841832D01*
X1463547Y832688D01*
X1463547Y818972D01*
X1454657Y810082D01*
X1440942Y805510D01*
X1422654Y805510D01*
X1409192Y810082D01*
X1400047Y818972D01*
X1493520Y901014D02*
G01*
X1493520Y805510D01*
X1493520Y805510D02*
G01*
X1548129Y805510D01*
X1578102Y901014D02*
G01*
X1578102Y805510D01*
X1578102Y901014D02*
G01*
X1637284Y901014D01*
X1578102Y855548D02*
G01*
X1614423Y855548D01*
X1578102Y805510D02*
G01*
X1637284Y805510D01*
X1667255Y901014D02*
G01*
X1667255Y805510D01*
X1667255Y901014D02*
G01*
X1726437Y901014D01*
X1667255Y855548D02*
G01*
X1703578Y855548D01*
X1667255Y805510D02*
G01*
X1726437Y805510D01*
X1756410Y901014D02*
G01*
X1792731Y805510D01*
X1829054Y901014D02*
G01*
X1792731Y805510D01*
X1859026Y901014D02*
G01*
X1859026Y805510D01*
X1859026Y901014D02*
G01*
X1918207Y901014D01*
X1859026Y855548D02*
G01*
X1895347Y855548D01*
X1859026Y805510D02*
G01*
X1918207Y805510D01*
X863676Y887298D02*
G01*
X854532Y896442D01*
X840816Y901014D01*
X822782Y901014D01*
X809066Y896442D01*
X799922Y887298D01*
X799922Y878154D01*
X804494Y869010D01*
X809066Y864438D01*
X818210Y860120D01*
X845388Y850976D01*
X854532Y846404D01*
X859104Y841832D01*
X863676Y832688D01*
X863676Y818972D01*
X854532Y810082D01*
X840816Y805510D01*
X822782Y805510D01*
X809066Y810082D01*
X799922Y818972D01*
X893648Y901014D02*
G01*
X893648Y805510D01*
X957148Y901014D02*
G01*
X957148Y805510D01*
X893648Y855548D02*
G01*
X957148Y855548D01*
X987374Y901014D02*
G01*
X987374Y832688D01*
X991692Y818972D01*
X1000836Y810082D01*
X1014552Y805510D01*
X1023696Y805510D01*
X1037158Y810082D01*
X1046302Y818972D01*
X1050874Y832688D01*
X1050874Y901014D01*
X1080846Y901014D02*
G01*
X1080846Y805510D01*
X1080846Y901014D02*
G01*
X1144600Y805510D01*
X1144600Y901014D02*
G01*
X1144600Y805510D01*
X1206322Y901014D02*
G01*
X1206322Y805510D01*
X1174572Y901014D02*
G01*
X1238072Y901014D01*
X331901Y900937D02*
G01*
X331901Y805434D01*
X299897Y900937D02*
G01*
X363651Y900937D01*
X393623Y900937D02*
G01*
X393623Y805434D01*
X423595Y900937D02*
G01*
X423595Y805434D01*
X423595Y900937D02*
G01*
X464489Y900937D01*
X478205Y896365D01*
X482777Y891794D01*
X487349Y882650D01*
X487349Y869187D01*
X482777Y860044D01*
X478205Y855471D01*
X464489Y850900D01*
X423595Y850900D01*
X813676Y2237298D02*
G01*
X804532Y2246442D01*
X790816Y2251014D01*
X772782Y2251014D01*
X759066Y2246442D01*
X749922Y2237298D01*
X749922Y2228154D01*
X754494Y2219010D01*
X759066Y2214438D01*
X768210Y2210120D01*
X795388Y2200976D01*
X804532Y2196404D01*
X809104Y2191832D01*
X813676Y2182688D01*
X813676Y2168972D01*
X804532Y2160082D01*
X790816Y2155510D01*
X772782Y2155510D01*
X759066Y2160082D01*
X749922Y2168972D01*
X843648Y2251014D02*
G01*
X843648Y2155510D01*
X907148Y2251014D02*
G01*
X907148Y2155510D01*
X843648Y2205548D02*
G01*
X907148Y2205548D01*
X937374Y2251014D02*
G01*
X937374Y2182688D01*
X941692Y2168972D01*
X950836Y2160082D01*
X964552Y2155510D01*
X973696Y2155510D01*
X987158Y2160082D01*
X996302Y2168972D01*
X1000874Y2182688D01*
X1000874Y2251014D01*
X1030846Y2251014D02*
G01*
X1030846Y2155510D01*
X1030846Y2251014D02*
G01*
X1094600Y2155510D01*
X1094600Y2251014D02*
G01*
X1094600Y2155510D01*
X1156322Y2251014D02*
G01*
X1156322Y2155510D01*
X1124572Y2251014D02*
G01*
X1188072Y2251014D01*
X281901Y2250937D02*
G01*
X281901Y2155433D01*
X249897Y2250937D02*
G01*
X313651Y2250937D01*
X343623Y2250937D02*
G01*
X343623Y2155433D01*
X373595Y2250937D02*
G01*
X373595Y2155433D01*
X373595Y2250937D02*
G01*
X414489Y2250937D01*
X428205Y2246365D01*
X432777Y2241793D01*
X437349Y2232649D01*
X437349Y2219187D01*
X432777Y2210043D01*
X428205Y2205471D01*
X414489Y2200899D01*
X373595Y2200899D01*
X1413548Y2237298D02*
G01*
X1404658Y2246442D01*
X1390942Y2251014D01*
X1372654Y2251014D01*
X1359192Y2246442D01*
X1350048Y2237298D01*
X1350048Y2228154D01*
X1354620Y2219010D01*
X1359192Y2214438D01*
X1368082Y2210120D01*
X1395514Y2200976D01*
X1404658Y2196404D01*
X1408976Y2191832D01*
X1413548Y2182688D01*
X1413548Y2168972D01*
X1404658Y2160082D01*
X1390942Y2155510D01*
X1372654Y2155510D01*
X1359192Y2160082D01*
X1350048Y2168972D01*
X1443520Y2251014D02*
G01*
X1443520Y2155510D01*
X1443520Y2155510D02*
G01*
X1498130Y2155510D01*
X1528102Y2251014D02*
G01*
X1528102Y2155510D01*
X1528102Y2251014D02*
G01*
X1587284Y2251014D01*
X1528102Y2205548D02*
G01*
X1564424Y2205548D01*
X1528102Y2155510D02*
G01*
X1587284Y2155510D01*
X1617256Y2251014D02*
G01*
X1617256Y2155510D01*
X1617256Y2251014D02*
G01*
X1676438Y2251014D01*
X1617256Y2205548D02*
G01*
X1653578Y2205548D01*
X1617256Y2155510D02*
G01*
X1676438Y2155510D01*
X1706410Y2251014D02*
G01*
X1742732Y2155510D01*
X1779054Y2251014D02*
G01*
X1742732Y2155510D01*
X1809026Y2251014D02*
G01*
X1809026Y2155510D01*
X1809026Y2251014D02*
G01*
X1868208Y2251014D01*
X1809026Y2205548D02*
G01*
X1845348Y2205548D01*
X1809026Y2155510D02*
G01*
X1868208Y2155510D01*
X813676Y3287298D02*
G01*
X804532Y3296442D01*
X790816Y3301014D01*
X772782Y3301014D01*
X759066Y3296442D01*
X749922Y3287298D01*
X749922Y3278154D01*
X754494Y3269010D01*
X759066Y3264438D01*
X768210Y3260120D01*
X795388Y3250976D01*
X804532Y3246404D01*
X809104Y3241832D01*
X813676Y3232688D01*
X813676Y3218972D01*
X804532Y3210082D01*
X790816Y3205510D01*
X772782Y3205510D01*
X759066Y3210082D01*
X749922Y3218972D01*
X843648Y3301014D02*
G01*
X843648Y3205510D01*
X907148Y3301014D02*
G01*
X907148Y3205510D01*
X843648Y3255548D02*
G01*
X907148Y3255548D01*
X937374Y3301014D02*
G01*
X937374Y3232688D01*
X941692Y3218972D01*
X950836Y3210082D01*
X964552Y3205510D01*
X973696Y3205510D01*
X987158Y3210082D01*
X996302Y3218972D01*
X1000874Y3232688D01*
X1000874Y3301014D01*
X1030846Y3301014D02*
G01*
X1030846Y3205510D01*
X1030846Y3301014D02*
G01*
X1094600Y3205510D01*
X1094600Y3301014D02*
G01*
X1094600Y3205510D01*
X1156322Y3301014D02*
G01*
X1156322Y3205510D01*
X1124572Y3301014D02*
G01*
X1188072Y3301014D01*
X281901Y3300938D02*
G01*
X281901Y3205434D01*
X249897Y3300938D02*
G01*
X313651Y3300938D01*
X343623Y3300938D02*
G01*
X343623Y3205434D01*
X373595Y3300938D02*
G01*
X373595Y3205434D01*
X373595Y3300938D02*
G01*
X414489Y3300938D01*
X428205Y3296366D01*
X432777Y3291794D01*
X437349Y3282650D01*
X437349Y3269188D01*
X432777Y3260044D01*
X428205Y3255472D01*
X414489Y3250900D01*
X373595Y3250900D01*
X1413548Y3287298D02*
G01*
X1404658Y3296442D01*
X1390942Y3301014D01*
X1372654Y3301014D01*
X1359192Y3296442D01*
X1350048Y3287298D01*
X1350048Y3278154D01*
X1354620Y3269010D01*
X1359192Y3264438D01*
X1368082Y3260120D01*
X1395514Y3250976D01*
X1404658Y3246404D01*
X1408976Y3241832D01*
X1413548Y3232688D01*
X1413548Y3218972D01*
X1404658Y3210082D01*
X1390942Y3205510D01*
X1372654Y3205510D01*
X1359192Y3210082D01*
X1350048Y3218972D01*
X1443520Y3301014D02*
G01*
X1443520Y3205510D01*
X1443520Y3205510D02*
G01*
X1498130Y3205510D01*
X1528102Y3301014D02*
G01*
X1528102Y3205510D01*
X1528102Y3301014D02*
G01*
X1587284Y3301014D01*
X1528102Y3255548D02*
G01*
X1564424Y3255548D01*
X1528102Y3205510D02*
G01*
X1587284Y3205510D01*
X1617256Y3301014D02*
G01*
X1617256Y3205510D01*
X1617256Y3301014D02*
G01*
X1676438Y3301014D01*
X1617256Y3255548D02*
G01*
X1653578Y3255548D01*
X1617256Y3205510D02*
G01*
X1676438Y3205510D01*
X1706410Y3301014D02*
G01*
X1742732Y3205510D01*
X1779054Y3301014D02*
G01*
X1742732Y3205510D01*
X1809026Y3301014D02*
G01*
X1809026Y3205510D01*
X1809026Y3301014D02*
G01*
X1868208Y3301014D01*
X1809026Y3255548D02*
G01*
X1845348Y3255548D01*
X1809026Y3205510D02*
G01*
X1868208Y3205510D01*
X131902Y7000938D02*
G01*
X131902Y6905434D01*
X99898Y7000938D02*
G01*
X163652Y7000938D01*
X193624Y7000938D02*
G01*
X193624Y6905434D01*
X223596Y7000938D02*
G01*
X223596Y6905434D01*
X223596Y7000938D02*
G01*
X264490Y7000938D01*
X278206Y6996366D01*
X282778Y6991794D01*
X287350Y6982650D01*
X287350Y6969188D01*
X282778Y6960044D01*
X278206Y6955472D01*
X264490Y6950900D01*
X223596Y6950900D01*
X1263548Y5587296D02*
G01*
X1254658Y5596440D01*
X1240942Y5601012D01*
X1222654Y5601012D01*
X1209192Y5596440D01*
X1200048Y5587296D01*
X1200048Y5578152D01*
X1204620Y5569008D01*
X1209192Y5564436D01*
X1218082Y5560118D01*
X1245514Y5550974D01*
X1254658Y5546402D01*
X1258976Y5541830D01*
X1263548Y5532686D01*
X1263548Y5518970D01*
X1254658Y5510080D01*
X1240942Y5505508D01*
X1222654Y5505508D01*
X1209192Y5510080D01*
X1200048Y5518970D01*
X1293520Y5601012D02*
G01*
X1293520Y5505508D01*
X1293520Y5505508D02*
G01*
X1348130Y5505508D01*
X1378102Y5601012D02*
G01*
X1378102Y5505508D01*
X1378102Y5601012D02*
G01*
X1437284Y5601012D01*
X1378102Y5555546D02*
G01*
X1414424Y5555546D01*
X1378102Y5505508D02*
G01*
X1437284Y5505508D01*
X1467256Y5601012D02*
G01*
X1467256Y5505508D01*
X1467256Y5601012D02*
G01*
X1526438Y5601012D01*
X1467256Y5555546D02*
G01*
X1503578Y5555546D01*
X1467256Y5505508D02*
G01*
X1526438Y5505508D01*
X1556410Y5601012D02*
G01*
X1592732Y5505508D01*
X1629054Y5601012D02*
G01*
X1592732Y5505508D01*
X1659026Y5601012D02*
G01*
X1659026Y5505508D01*
X1659026Y5601012D02*
G01*
X1718208Y5601012D01*
X1659026Y5555546D02*
G01*
X1695348Y5555546D01*
X1659026Y5505508D02*
G01*
X1718208Y5505508D01*
X213674Y7537297D02*
G01*
X204530Y7546441D01*
X190814Y7551013D01*
X172780Y7551013D01*
X159064Y7546441D01*
X149920Y7537297D01*
X149920Y7528153D01*
X154492Y7519009D01*
X159064Y7514437D01*
X168208Y7510119D01*
X195386Y7500975D01*
X204530Y7496403D01*
X209102Y7491831D01*
X213674Y7482687D01*
X213674Y7468971D01*
X204530Y7460081D01*
X190814Y7455509D01*
X172780Y7455509D01*
X159064Y7460081D01*
X149920Y7468971D01*
X243646Y7551013D02*
G01*
X243646Y7455509D01*
X307146Y7551013D02*
G01*
X307146Y7455509D01*
X243646Y7505547D02*
G01*
X307146Y7505547D01*
X337372Y7551013D02*
G01*
X337372Y7482687D01*
X341690Y7468971D01*
X350834Y7460081D01*
X364550Y7455509D01*
X373694Y7455509D01*
X387156Y7460081D01*
X396300Y7468971D01*
X400872Y7482687D01*
X400872Y7551013D01*
X430844Y7551013D02*
G01*
X430844Y7455509D01*
X430844Y7551013D02*
G01*
X494598Y7455509D01*
X494598Y7551013D02*
G01*
X494598Y7455509D01*
X556320Y7551013D02*
G01*
X556320Y7455509D01*
X524570Y7551013D02*
G01*
X588070Y7551013D01*
X431901Y8050936D02*
G01*
X431901Y7955432D01*
X399897Y8050936D02*
G01*
X463651Y8050936D01*
X493623Y8050936D02*
G01*
X493623Y7955432D01*
X523595Y8050936D02*
G01*
X523595Y7955432D01*
X523595Y8050936D02*
G01*
X564489Y8050936D01*
X578205Y8046364D01*
X582777Y8041792D01*
X587349Y8032648D01*
X587349Y8019186D01*
X582777Y8010042D01*
X578205Y8005470D01*
X564489Y8000898D01*
X523595Y8000898D01*
X163548Y8537298D02*
G01*
X154658Y8546442D01*
X140942Y8551014D01*
X122654Y8551014D01*
X109192Y8546442D01*
X100048Y8537298D01*
X100048Y8528154D01*
X104620Y8519010D01*
X109192Y8514438D01*
X118082Y8510120D01*
X145514Y8500976D01*
X154658Y8496404D01*
X158976Y8491832D01*
X163548Y8482688D01*
X163548Y8468972D01*
X154658Y8460082D01*
X140942Y8455510D01*
X122654Y8455510D01*
X109192Y8460082D01*
X100048Y8468972D01*
X193520Y8551014D02*
G01*
X193520Y8455510D01*
X193520Y8455510D02*
G01*
X248130Y8455510D01*
X278102Y8551014D02*
G01*
X278102Y8455510D01*
X278102Y8551014D02*
G01*
X337284Y8551014D01*
X278102Y8505548D02*
G01*
X314424Y8505548D01*
X278102Y8455510D02*
G01*
X337284Y8455510D01*
X367256Y8551014D02*
G01*
X367256Y8455510D01*
X367256Y8551014D02*
G01*
X426438Y8551014D01*
X367256Y8505548D02*
G01*
X403578Y8505548D01*
X367256Y8455510D02*
G01*
X426438Y8455510D01*
X456410Y8551014D02*
G01*
X492732Y8455510D01*
X529054Y8551014D02*
G01*
X492732Y8455510D01*
X559026Y8551014D02*
G01*
X559026Y8455510D01*
X559026Y8551014D02*
G01*
X618208Y8551014D01*
X559026Y8505548D02*
G01*
X595348Y8505548D01*
X559026Y8455510D02*
G01*
X618208Y8455510D01*
X1749201Y7150120D02*
G01*
X1844451Y7186442D01*
X1749201Y7222764D02*
G01*
X1844451Y7186442D01*
X1808129Y7252736D02*
G01*
X1808129Y7307346D01*
X1798985Y7307346D01*
X1790095Y7302774D01*
X1785523Y7298202D01*
X1780951Y7289058D01*
X1780951Y7275342D01*
X1785523Y7266452D01*
X1794667Y7257308D01*
X1808129Y7252736D01*
X1817273Y7252736D01*
X1830989Y7257308D01*
X1839879Y7266452D01*
X1844451Y7275342D01*
X1844451Y7289058D01*
X1839879Y7298202D01*
X1830989Y7307346D01*
X1780951Y7337318D02*
G01*
X1844451Y7337318D01*
X1808129Y7337318D02*
G01*
X1794667Y7341890D01*
X1785523Y7351034D01*
X1780951Y7359924D01*
X1780951Y7373640D01*
X1794667Y7453650D02*
G01*
X1785523Y7449078D01*
X1780951Y7435362D01*
X1780951Y7421900D01*
X1785523Y7408184D01*
X1794667Y7403612D01*
X1803557Y7408184D01*
X1808129Y7417328D01*
X1812701Y7439934D01*
X1817273Y7449078D01*
X1826417Y7453650D01*
X1830989Y7453650D01*
X1839879Y7449078D01*
X1844451Y7435362D01*
X1844451Y7421900D01*
X1839879Y7408184D01*
X1830989Y7403612D01*
X1749201Y7483622D02*
G01*
X1753519Y7488194D01*
X1749201Y7492766D01*
X1744629Y7488194D01*
X1749201Y7483622D01*
X1780951Y7488194D02*
G01*
X1844451Y7488194D01*
X1780951Y7545344D02*
G01*
X1785523Y7536454D01*
X1794667Y7527310D01*
X1808129Y7522738D01*
X1817273Y7522738D01*
X1830989Y7527310D01*
X1839879Y7536454D01*
X1844451Y7545344D01*
X1844451Y7559060D01*
X1839879Y7568204D01*
X1830989Y7577348D01*
X1817273Y7581920D01*
X1808129Y7581920D01*
X1794667Y7577348D01*
X1785523Y7568204D01*
X1780951Y7559060D01*
X1780951Y7545344D01*
X1780951Y7611892D02*
G01*
X1844451Y7611892D01*
X1798985Y7611892D02*
G01*
X1785523Y7625354D01*
X1780951Y7634498D01*
X1780951Y7648214D01*
X1785523Y7657358D01*
X1798985Y7661930D01*
X1844451Y7661930D01*
X1767235Y7761752D02*
G01*
X1762663Y7770896D01*
X1749201Y7784612D01*
X1844451Y7784612D01*
X1821845Y7819156D02*
G01*
X1826417Y7814584D01*
X1830989Y7819156D01*
X1826417Y7823728D01*
X1821845Y7819156D01*
X1749201Y7880878D02*
G01*
X1753519Y7867162D01*
X1767235Y7858272D01*
X1790095Y7853700D01*
X1803557Y7853700D01*
X1826417Y7858272D01*
X1839879Y7867162D01*
X1844451Y7880878D01*
X1844451Y7890022D01*
X1839879Y7903738D01*
X1826417Y7912628D01*
X1803557Y7917200D01*
X1790095Y7917200D01*
X1767235Y7912628D01*
X1753519Y7903738D01*
X1749201Y7890022D01*
X1749201Y7880878D01*
X1821845Y7951744D02*
G01*
X1826417Y7947172D01*
X1830989Y7951744D01*
X1826417Y7956316D01*
X1821845Y7951744D01*
X1749201Y8013720D02*
G01*
X1753519Y8000004D01*
X1767235Y7990860D01*
X1790095Y7986288D01*
X1803557Y7986288D01*
X1826417Y7990860D01*
X1839879Y8000004D01*
X1844451Y8013720D01*
X1844451Y8022610D01*
X1839879Y8036326D01*
X1826417Y8045470D01*
X1803557Y8050042D01*
X1790095Y8050042D01*
X1767235Y8045470D01*
X1753519Y8036326D01*
X1749201Y8022610D01*
X1749201Y8013720D01*
X1499151Y6686440D02*
G01*
X1594655Y6650118D01*
X1499151Y6686440D02*
G01*
X1594655Y6722762D01*
X1562651Y6663580D02*
G01*
X1562651Y6709046D01*
X1530901Y6752734D02*
G01*
X1576367Y6752734D01*
X1590083Y6757306D01*
X1594655Y6766450D01*
X1594655Y6779912D01*
X1590083Y6789056D01*
X1576367Y6802772D01*
X1530901Y6802772D02*
G01*
X1594655Y6802772D01*
X1499151Y6887354D02*
G01*
X1594655Y6887354D01*
X1544617Y6887354D02*
G01*
X1535473Y6878210D01*
X1530901Y6869066D01*
X1530901Y6855350D01*
X1535473Y6846460D01*
X1544617Y6837316D01*
X1558079Y6832744D01*
X1567223Y6832744D01*
X1580939Y6837316D01*
X1590083Y6846460D01*
X1594655Y6855350D01*
X1594655Y6869066D01*
X1590083Y6878210D01*
X1580939Y6887354D01*
X1499151Y6917326D02*
G01*
X1503723Y6921898D01*
X1499151Y6926470D01*
X1494579Y6921898D01*
X1499151Y6917326D01*
X1530901Y6921898D02*
G01*
X1594655Y6921898D01*
X1530901Y6979048D02*
G01*
X1535473Y6969904D01*
X1544617Y6961014D01*
X1558079Y6956442D01*
X1567223Y6956442D01*
X1580939Y6961014D01*
X1590083Y6969904D01*
X1594655Y6979048D01*
X1594655Y6992764D01*
X1590083Y7001908D01*
X1580939Y7010798D01*
X1567223Y7015370D01*
X1558079Y7015370D01*
X1544617Y7010798D01*
X1535473Y7001908D01*
X1530901Y6992764D01*
X1530901Y6979048D01*
X1544617Y7170056D02*
G01*
X1535473Y7160912D01*
X1530901Y7151768D01*
X1530901Y7138306D01*
X1535473Y7129162D01*
X1544617Y7120018D01*
X1558079Y7115446D01*
X1567223Y7115446D01*
X1580939Y7120018D01*
X1590083Y7129162D01*
X1594655Y7138306D01*
X1594655Y7151768D01*
X1590083Y7160912D01*
X1580939Y7170056D01*
X1530901Y7222634D02*
G01*
X1535473Y7213744D01*
X1544617Y7204600D01*
X1558079Y7200028D01*
X1567223Y7200028D01*
X1580939Y7204600D01*
X1590083Y7213744D01*
X1594655Y7222634D01*
X1594655Y7236350D01*
X1590083Y7245494D01*
X1580939Y7254638D01*
X1567223Y7259210D01*
X1558079Y7259210D01*
X1544617Y7254638D01*
X1535473Y7245494D01*
X1530901Y7236350D01*
X1530901Y7222634D01*
X1530901Y7289182D02*
G01*
X1594655Y7289182D01*
X1549189Y7289182D02*
G01*
X1535473Y7302644D01*
X1530901Y7311788D01*
X1530901Y7325504D01*
X1535473Y7334648D01*
X1549189Y7338966D01*
X1594655Y7338966D01*
X1530901Y7369192D02*
G01*
X1594655Y7369192D01*
X1549189Y7369192D02*
G01*
X1535473Y7382654D01*
X1530901Y7391798D01*
X1530901Y7405514D01*
X1535473Y7414658D01*
X1549189Y7418976D01*
X1594655Y7418976D01*
X1558079Y7449202D02*
G01*
X1558079Y7503558D01*
X1549189Y7503558D01*
X1540045Y7498986D01*
X1535473Y7494668D01*
X1530901Y7485524D01*
X1530901Y7471808D01*
X1535473Y7462664D01*
X1544617Y7453520D01*
X1558079Y7449202D01*
X1567223Y7449202D01*
X1580939Y7453520D01*
X1590083Y7462664D01*
X1594655Y7471808D01*
X1594655Y7485524D01*
X1590083Y7494668D01*
X1580939Y7503558D01*
X1544617Y7588140D02*
G01*
X1535473Y7578996D01*
X1530901Y7570106D01*
X1530901Y7556390D01*
X1535473Y7547246D01*
X1544617Y7538102D01*
X1558079Y7533530D01*
X1567223Y7533530D01*
X1580939Y7538102D01*
X1590083Y7547246D01*
X1594655Y7556390D01*
X1594655Y7570106D01*
X1590083Y7578996D01*
X1580939Y7588140D01*
X1499151Y7631828D02*
G01*
X1576367Y7631828D01*
X1590083Y7636400D01*
X1594655Y7645544D01*
X1594655Y7654434D01*
X1530901Y7618112D02*
G01*
X1530901Y7650116D01*
X1530901Y7707266D02*
G01*
X1535473Y7698122D01*
X1544617Y7688978D01*
X1558079Y7684660D01*
X1567223Y7684660D01*
X1580939Y7688978D01*
X1590083Y7698122D01*
X1594655Y7707266D01*
X1594655Y7720982D01*
X1590083Y7729872D01*
X1580939Y7739016D01*
X1567223Y7743588D01*
X1558079Y7743588D01*
X1544617Y7739016D01*
X1535473Y7729872D01*
X1530901Y7720982D01*
X1530901Y7707266D01*
X1530901Y7773560D02*
G01*
X1594655Y7773560D01*
X1558079Y7773560D02*
G01*
X1544617Y7778132D01*
X1535473Y7787276D01*
X1530901Y7796420D01*
X1530901Y7809882D01*
X1499151Y7909958D02*
G01*
X1594655Y7909958D01*
X1544617Y7909958D02*
G01*
X1535473Y7919102D01*
X1530901Y7928246D01*
X1530901Y7941708D01*
X1535473Y7950852D01*
X1544617Y7959996D01*
X1558079Y7964568D01*
X1567223Y7964568D01*
X1580939Y7959996D01*
X1590083Y7950852D01*
X1594655Y7941708D01*
X1594655Y7928246D01*
X1590083Y7919102D01*
X1580939Y7909958D01*
X1530901Y7994540D02*
G01*
X1594655Y7994540D01*
X1558079Y7994540D02*
G01*
X1544617Y7999112D01*
X1535473Y8008256D01*
X1530901Y8017146D01*
X1530901Y8030862D01*
X1558079Y8060834D02*
G01*
X1558079Y8115444D01*
X1549189Y8115444D01*
X1540045Y8110872D01*
X1535473Y8106300D01*
X1530901Y8097156D01*
X1530901Y8083694D01*
X1535473Y8074550D01*
X1544617Y8065406D01*
X1558079Y8060834D01*
X1567223Y8060834D01*
X1580939Y8065406D01*
X1590083Y8074550D01*
X1594655Y8083694D01*
X1594655Y8097156D01*
X1590083Y8106300D01*
X1580939Y8115444D01*
X1530901Y8200026D02*
G01*
X1594655Y8200026D01*
X1544617Y8200026D02*
G01*
X1535473Y8190882D01*
X1530901Y8181738D01*
X1530901Y8168276D01*
X1535473Y8159132D01*
X1544617Y8149988D01*
X1558079Y8145416D01*
X1567223Y8145416D01*
X1580939Y8149988D01*
X1590083Y8159132D01*
X1594655Y8168276D01*
X1594655Y8181738D01*
X1590083Y8190882D01*
X1580939Y8200026D01*
X1499151Y8229998D02*
G01*
X1594655Y8229998D01*
X1530901Y8275464D02*
G01*
X1576367Y8229998D01*
X1558079Y8248286D02*
G01*
X1594655Y8280036D01*
X1530901Y8332614D02*
G01*
X1535473Y8323724D01*
X1544617Y8314580D01*
X1558079Y8310008D01*
X1567223Y8310008D01*
X1580939Y8314580D01*
X1590083Y8323724D01*
X1594655Y8332614D01*
X1594655Y8346330D01*
X1590083Y8355474D01*
X1580939Y8364618D01*
X1567223Y8369190D01*
X1558079Y8369190D01*
X1544617Y8364618D01*
X1535473Y8355474D01*
X1530901Y8346330D01*
X1530901Y8332614D01*
X1530901Y8399162D02*
G01*
X1576367Y8399162D01*
X1590083Y8403734D01*
X1594655Y8412624D01*
X1594655Y8426340D01*
X1590083Y8435484D01*
X1576367Y8449200D01*
X1530901Y8449200D02*
G01*
X1594655Y8449200D01*
X1499151Y8492634D02*
G01*
X1576367Y8492634D01*
X1590083Y8497206D01*
X1594655Y8506350D01*
X1594655Y8515494D01*
X1530901Y8479172D02*
G01*
X1530901Y8510922D01*
D10*
X221947Y1899922D02*
G01*
X1779932Y1899922D01*
X1779932Y1900938D02*
G01*
X1779932Y1140919D01*
X221947Y1753897D02*
G01*
X1779932Y1753897D01*
X221947Y1254914D02*
G01*
X1779932Y1254914D01*
X412117Y1893089D02*
G01*
X412117Y1839089D01*
X565101Y1839089D01*
X565101Y1893089D01*
X221947Y1137922D02*
G01*
X1779932Y1137922D01*
X221947Y1191922D02*
G01*
X1779932Y1191922D01*
X218950Y1897941D02*
G01*
X218950Y1137922D01*
X922987Y1894055D02*
G01*
X922987Y1840054D01*
X1075971Y1840054D01*
X1075971Y1894055D01*
X1422783Y1897052D02*
G01*
X1422783Y1843051D01*
X1575767Y1843051D01*
X1575767Y1897052D01*
X1299999Y8625004D02*
G01*
X1349999Y8625004D01*
X650001Y8625004D02*
G01*
X700001Y8625004D01*
X700001Y9005003D02*
G01*
X1299999Y9005003D01*
X700001Y8625004D02*
G01*
X700001Y9005003D01*
X1299999Y8625004D02*
G01*
X1299999Y9005003D01*
X650001Y7325004D02*
G01*
X1349999Y7325004D01*
X1349999Y7325004D01*
X650001Y8625004D02*
G01*
X650001Y7325004D01*
X1349999Y8625004D02*
G01*
X1349999Y7325004D01*
G75*
G01
X1626997Y3499993D02*
G03X1626997Y3499993I-127000J0D01*
G75*
G01
X1126998Y3499993D02*
G03X1126998Y3499993I-127000J0D01*
G75*
G01
X1126998Y2499995D02*
G03X1126998Y2499995I-127000J0D01*
G75*
G01
X626999Y2499995D02*
G03X626999Y2499995I-127000J0D01*
G75*
G01
X626999Y3499993D02*
G03X626999Y3499993I-127000J0D01*
G75*
G01
X1626997Y2499995D02*
G03X1626997Y2499995I-127000J0D01*
G75*
G01
X1150010Y6237300D02*
G03X1150010Y6237300I-550012J0D01*
G75*
G01
X1950009Y4737303D02*
G03X1950009Y4737303I-550012J0D01*
M02*
