<svg xmlns="http://www.w3.org/2000/svg" xmlns:xlink="http://www.w3.org/1999/xlink" width="25.07mm" height="95.123mm" viewBox="4010 3063.5 98.7 374.5"><title></title><style type="text/css">
*[layerid="1"] {stroke:#000000;fill:#000000;}
*[layerid="2"] {stroke:#000000;fill:#000000;}
*[layerid="3"] {stroke:#000000;fill:#000000;}
*[layerid="4"] {stroke:#000000;fill:#000000;}
*[layerid="5"] {stroke:#000000;fill:#000000;}
*[layerid="6"] {stroke:#000000;fill:#000000;}
*[layerid="7"] {stroke:#000000;fill:#000000;}
*[layerid="8"] {stroke:#000000;fill:#000000;}
*[layerid="9"] {stroke:#000000;fill:#000000;}
*[layerid="10"] {stroke:#000000;fill:#000000;}
*[layerid="11"] {stroke:#000000;fill:#000000;}
*[layerid="12"] {stroke:#000000;fill:#000000;}
*[layerid="13"] {stroke:#000000;fill:#000000;}
*[layerid="14"] {stroke:#000000;fill:#000000;}
*[layerid="15"] {stroke:#000000;fill:#000000;}
*[layerid="19"] {stroke:#000000;fill:#000000;}
*[layerid="21"] {stroke:#000000;fill:#000000;}
*[layerid="22"] {stroke:#000000;fill:#000000;}
*[layerid="23"] {stroke:#000000;fill:#000000;}
*[layerid="24"] {stroke:#000000;fill:#000000;}
*[layerid="25"] {stroke:#000000;fill:#000000;}
*[layerid="26"] {stroke:#000000;fill:#000000;}
*[layerid="27"] {stroke:#000000;fill:#000000;}
*[layerid="28"] {stroke:#000000;fill:#000000;}
*[layerid="29"] {stroke:#000000;fill:#000000;}
*[layerid="30"] {stroke:#000000;fill:#000000;}
*[layerid="31"] {stroke:#000000;fill:#000000;}
*[layerid="32"] {stroke:#000000;fill:#000000;}
*[layerid="33"] {stroke:#000000;fill:#000000;}
*[layerid="34"] {stroke:#000000;fill:#000000;}
*[layerid="35"] {stroke:#000000;fill:#000000;}
*[layerid="36"] {stroke:#000000;fill:#000000;}
*[layerid="37"] {stroke:#000000;fill:#000000;}
*[layerid="38"] {stroke:#000000;fill:#000000;}
*[layerid="39"] {stroke:#000000;fill:#000000;}
*[layerid="40"] {stroke:#000000;fill:#000000;}
*[layerid="41"] {stroke:#000000;fill:#000000;}
*[layerid="42"] {stroke:#000000;fill:#000000;}
*[layerid="43"] {stroke:#000000;fill:#000000;}
*[layerid="44"] {stroke:#000000;fill:#000000;}
*[layerid="45"] {stroke:#000000;fill:#000000;}
*[layerid="46"] {stroke:#000000;fill:#000000;}
*[layerid="47"] {stroke:#000000;fill:#000000;}
*[layerid="48"] {stroke:#000000;fill:#000000;}
*[layerid="49"] {stroke:#000000;fill:#000000;}
*[layerid="50"] {stroke:#000000;fill:#000000;}
*[layerid="51"] {stroke:#000000;fill:#000000;}
*[layerid="52"] {stroke:#000000;fill:#000000;}
*[layerid="99"] {stroke:#000000;fill:#000000;}
*[layerid="100"] {stroke:#000000;fill:#000000;}
*[layerid="101"] {stroke:#000000;fill:#000000;}
*[layerid="Hole"] {stroke:#000000;fill:#000000;}
*[layerid="DRCError"] {stroke:#000000;fill:#000000;}
*[fill="none"] {fill: none;}
*[stroke="none"] {stroke: none;}
path, polyline, polygon, line {stroke-linecap:round;}
g[c_partid="part_pad"][layerid="1"] ellipse:not([c_etype="pad_outer"]) {fill:#000000;}
g[c_partid="part_pad"][layerid="1"] polygon:not([c_etype="pad_outer"]) {fill:#000000;}
g[c_partid="part_pad"][layerid="1"] polyline:not([c_etype="pad_outer"]) {stroke:#000000;}
g[c_partid="part_pad"][layerid="2"] ellipse:not([c_etype="pad_outer"]) {fill:#000000;}
g[c_partid="part_pad"][layerid="2"] polygon:not([c_etype="pad_outer"]) {fill:#000000;}
g[c_partid="part_pad"][layerid="2"] polyline:not([c_etype="pad_outer"]) {stroke:#000000;}
g[c_partid="part_pad"][layerid="11"] ellipse:not([c_etype="pad_outer"]) {fill:#000000;}
g[c_partid="part_pad"][layerid="11"] polygon:not([c_etype="pad_outer"]) {fill:#000000;}
g[c_partid="part_pad"][layerid="11"] polyline:not([c_etype="pad_outer"]) {stroke:#000000;}
g[c_partid="part_pad"][layerid="11"] circle {fill:#FFFFFF;}
g[c_partid="part_pad"][layerid="11"] > polyline:nth-of-type(2) {stroke:#FFFFFF;}
g[c_partid="part_pad"][layerid="11"][c_shape="ELLIPSE"]  polyline:nth-last-of-type(1) {stroke:#FFFFFF;}
g[c_partid="part_pad"][layerid="11"][c_shape="RECT"]  polyline:nth-last-of-type(1) {stroke:#FFFFFF;}
g[c_partid="part_pad"][layerid="11"][c_shape="POLYGON"]  polyline:nth-last-of-type(1) {stroke:#FFFFFF;}
g[c_partid="part_via"] > * + circle, #gCurParts g[c_partid="part_via"] > * + circle {fill:#FFFFFF;}
g[c_partid="part_pad"] > polygon[c_etype="pad_outer"], #gCurParts g[c_partid="part_pad"] > polygon[c_etype="pad_outer"] {stroke-linejoin: miter;stroke-miterlimit: 100;}
g[c_partid="part_hole"] > circle {fill: #FFFFFF;}path, polyline, polygon {stroke-linejoin:round;}
rect, circle, ellipse, polyline, line, polygon, path {shape-rendering:crispEdges;}
</style>
<rect x="4010" y="3063.5" width="98.7" height="374.5" fill="#FFFFFF" stroke="none"/><polyline points="4043.622 3182.437 4043.622 3128.984 4059.3701 3113.2359" stroke-width="3.937"  stroke-linecap="round" fill="none" layerid="1" net="TIP" id="gge462" locked="0" /><polyline points="4039.685 3290.2047 4039.685 3266.5826 4027.874 3254.7716 4027.874 3198.185 4043.622 3182.437" stroke-width="3.937"  stroke-linecap="round" fill="none" layerid="1" net="TIP" id="gge461" locked="0" /><polyline points="4039.685 3329.5748 4039.685 3290.2047" stroke-width="3.937"  stroke-linecap="round" fill="none" layerid="1" net="TIP" id="gge460" locked="0" /><polyline points="4039.5251 3368.9449 4039.5251 3329.7347 4039.685 3329.5748" stroke-width="3.937"  stroke-linecap="round" fill="none" layerid="1" net="TIP" id="gge459" locked="0" /><polyline points="4059.3701 3329.5748 4059.3701 3290.2047" stroke-width="3.937"  stroke-linecap="round" fill="none" layerid="1" net="SHUNT" id="gge458" locked="0" /><polyline points="4059.4951 3368.9449 4059.4951 3329.6998 4059.3701 3329.5748" stroke-width="3.937"  stroke-linecap="round" fill="none" layerid="1" net="SHUNT" id="gge457" locked="0" /><polyline points="4079.2151 3368.9449 4079.2151 3329.7348 4079.0551 3329.5748" stroke-width="3.937"  stroke-linecap="round" fill="none" layerid="1" net="SLEEVE" id="gge456" locked="0" /><polyline points="4079.0551 3290.2047 4079.0551 3329.5748" stroke-width="3.937"  stroke-linecap="round" fill="none" layerid="1" net="SLEEVE" id="gge455" locked="0" /><polyline points="4075.1181 3241.4922 4075.1181 3286.2677 4079.0551 3290.2047" stroke-width="3.937"  stroke-linecap="round" fill="none" layerid="1" net="SLEEVE" id="gge454" locked="0" /><polyline points="4059.3701 3133.7089 4059.3701 3152.4095 4079.0551 3172.0945 4079.0551 3191.7795 4039.685 3231.1496 4039.685 3250.8346 4059.3701 3270.5197 4059.3701 3290.2047" stroke-width="3.937"  stroke-linecap="round" fill="none" layerid="1" net="SHUNT" id="gge451" locked="0" /><polyline points="4059.3701 3092.3699 4062.3226 3092.3699 4090.8661 3120.9134 4090.8661 3225.7442 4075.1181 3241.4922" stroke-width="3.937"  stroke-linecap="round" fill="none" layerid="1" net="SLEEVE" id="gge453" locked="0" /><g c_partid="part_pad" c_etype="pinpart" c_origin="4039.525,3368.945" layerid="11" number="1" net="TIP" plated ="Y"  id="gge116" locked="0" c_rotation="0" c_width="7.874" c_height="7.874" title="TIP" c_shape="ELLIPSE" pasteexpansion="0" solderexpansion="0.2"><ellipse c_etype="pad_shell" cx="4039.525" cy="3368.945" rx="3.937" ry="3.937" layerid="11" stroke-width="0"/><circle c_etype="pad_hole" cx="4039.5251" cy="3368.9449" r="2.5591" layerid="11" stroke-width="0"/></g><g c_partid="part_pad" c_etype="pinpart" c_origin="4059.245,3368.945" layerid="11" number="2" net="SHUNT" plated ="Y"  id="gge121" locked="0" c_rotation="0" c_width="7.874" c_height="7.874" title="SHUNT" c_shape="ELLIPSE" pasteexpansion="0" solderexpansion="0.2"><ellipse c_etype="pad_shell" cx="4059.245" cy="3368.945" rx="3.937" ry="3.937" layerid="11" stroke-width="0"/><circle c_etype="pad_hole" cx="4059.2451" cy="3368.9449" r="2.5591" layerid="11" stroke-width="0"/></g><g c_partid="part_pad" c_etype="pinpart" c_origin="4079.215,3368.945" layerid="11" number="3" net="SLEEVE" plated ="Y"  id="gge126" locked="0" c_rotation="0" c_width="7.874" c_height="7.874" title="SLEEVE" c_shape="ELLIPSE" pasteexpansion="0" solderexpansion="0.2"><ellipse c_etype="pad_shell" cx="4079.215" cy="3368.945" rx="3.937" ry="3.937" layerid="11" stroke-width="0"/><circle c_etype="pad_hole" cx="4079.2151" cy="3368.9449" r="2.5591" layerid="11" stroke-width="0"/></g><g c_partid="part_pad" c_etype="pinpart" c_origin="4059.37,3092.37" layerid="11" number="1" net="SLEEVE" plated ="Y"  id="gge146" locked="0" c_rotation="0" c_width="12.5984" c_height="6.6929" title="SLEEVE" c_shape="OVAL" pasteexpansion="0" solderexpansion="0.2"><polyline  c_etype="pad_shell" points="4056.4173 3092.37 4062.3228 3092.37" layerid="11" stroke-width="6.6929" /><polyline c_etype="pad_hole" points="4056.4174 3092.3699 4062.3228 3092.3699" layerid="11" stroke-width="4.3308"></polyline></g><g c_partid="part_pad" c_etype="pinpart" c_origin="4059.37,3113.236" layerid="11" number="2" net="TIP" plated ="Y"  id="gge151" locked="0" c_rotation="0" c_width="12.5984" c_height="6.6929" title="TIP" c_shape="OVAL" pasteexpansion="0" solderexpansion="0.2"><polyline  c_etype="pad_shell" points="4056.4173 3113.236 4062.3228 3113.236" layerid="11" stroke-width="6.6929" /><polyline c_etype="pad_hole" points="4056.4174 3113.236 4062.3228 3113.236" layerid="11" stroke-width="4.3308"></polyline></g><g c_partid="part_pad" c_etype="pinpart" c_origin="4059.37,3133.709" layerid="11" number="4" net="SHUNT" plated ="Y"  id="gge156" locked="0" c_rotation="0" c_width="12.5984" c_height="6.6929" title="SHUNT" c_shape="OVAL" pasteexpansion="0" solderexpansion="0.2"><polyline  c_etype="pad_shell" points="4056.4173 3133.709 4062.3228 3133.709" layerid="11" stroke-width="6.6929" /><polyline c_etype="pad_hole" points="4056.4174 3133.7085 4062.3228 3133.7085" layerid="11" stroke-width="4.3308"></polyline></g><g c_partid="part_pad" c_etype="pinpart" c_origin="4079.055,3290.205" layerid="11" number="1" net="SLEEVE" plated ="Y"  id="gge304" locked="0" c_rotation="90" c_width="7.4803" c_height="7.4803" title="SLEEVE" c_shape="ELLIPSE" pasteexpansion="0" solderexpansion="0.2"><ellipse c_etype="pad_shell" cx="4079.055" cy="3290.205" rx="3.74015" ry="3.74015" layerid="11" stroke-width="0"/><circle c_etype="pad_hole" cx="4079.0551" cy="3290.2047" r="2.7362" layerid="11" stroke-width="0"/></g><g c_partid="part_pad" c_etype="pinpart" c_origin="4059.37,3290.205" layerid="11" number="1" net="SHUNT" plated ="Y"  id="gge321" locked="0" c_rotation="90" c_width="7.4803" c_height="7.4803" title="SHUNT" c_shape="ELLIPSE" pasteexpansion="0" solderexpansion="0.2"><ellipse c_etype="pad_shell" cx="4059.37" cy="3290.205" rx="3.74015" ry="3.74015" layerid="11" stroke-width="0"/><circle c_etype="pad_hole" cx="4059.3701" cy="3290.2047" r="2.7362" layerid="11" stroke-width="0"/></g><g c_partid="part_pad" c_etype="pinpart" c_origin="4059.37,3329.575" layerid="11" number="1" net="SHUNT" plated ="Y"  id="gge338" locked="0" c_rotation="90" c_width="7.4803" c_height="7.4803" title="SHUNT" c_shape="ELLIPSE" pasteexpansion="0" solderexpansion="0.2"><ellipse c_etype="pad_shell" cx="4059.37" cy="3329.575" rx="3.74015" ry="3.74015" layerid="11" stroke-width="0"/><circle c_etype="pad_hole" cx="4059.3701" cy="3329.5748" r="2.7362" layerid="11" stroke-width="0"/></g><g c_partid="part_pad" c_etype="pinpart" c_origin="4039.685,3329.575" layerid="11" number="1" net="TIP" plated ="Y"  id="gge355" locked="0" c_rotation="90" c_width="7.4803" c_height="7.4803" title="TIP" c_shape="ELLIPSE" pasteexpansion="0" solderexpansion="0.2"><ellipse c_etype="pad_shell" cx="4039.685" cy="3329.575" rx="3.74015" ry="3.74015" layerid="11" stroke-width="0"/><circle c_etype="pad_hole" cx="4039.685" cy="3329.5748" r="2.7362" layerid="11" stroke-width="0"/></g><g c_partid="part_pad" c_etype="pinpart" c_origin="4039.685,3290.205" layerid="11" number="1" net="TIP" plated ="Y"  id="gge372" locked="0" c_rotation="90" c_width="7.4803" c_height="7.4803" title="TIP" c_shape="ELLIPSE" pasteexpansion="0" solderexpansion="0.2"><ellipse c_etype="pad_shell" cx="4039.685" cy="3290.205" rx="3.74015" ry="3.74015" layerid="11" stroke-width="0"/><circle c_etype="pad_hole" cx="4039.685" cy="3290.2047" r="2.7362" layerid="11" stroke-width="0"/></g><g c_partid="part_pad" c_etype="pinpart" c_origin="4079.055,3329.575" layerid="11" number="1" net="SLEEVE" plated ="Y"  id="gge383" locked="0" c_rotation="90" c_width="7.4803" c_height="7.4803" title="SLEEVE" c_shape="ELLIPSE" pasteexpansion="0" solderexpansion="0.2"><ellipse c_etype="pad_shell" cx="4079.055" cy="3329.575" rx="3.74015" ry="3.74015" layerid="11" stroke-width="0"/><circle c_etype="pad_hole" cx="4079.0551" cy="3329.5748" r="2.7362" layerid="11" stroke-width="0"/></g><g c_partid="part_pad" c_etype="pinpart" c_origin="4043.622,3182.437" layerid="11" number="1" net="TIP" plated ="Y"  id="gge408" locked="0" c_rotation="0" c_width="35.4331" c_height="35.4331" title="TIP" c_shape="ELLIPSE" pasteexpansion="0" solderexpansion="0.4"><ellipse c_etype="pad_shell" cx="4043.622" cy="3182.437" rx="17.71655" ry="17.71655" layerid="11" stroke-width="0"/><circle c_etype="pad_hole" cx="4043.6219" cy="3182.4369" r="11.811" layerid="11" stroke-width="0"/></g><g c_partid="part_pad" c_etype="pinpart" c_origin="4075.118,3241.492" layerid="11" number="1" net="SLEEVE" plated ="Y"  id="gge414" locked="0" c_rotation="0" c_width="35.4331" c_height="35.4331" title="SLEEVE" c_shape="ELLIPSE" pasteexpansion="0" solderexpansion="0.4"><ellipse c_etype="pad_shell" cx="4075.118" cy="3241.492" rx="17.71655" ry="17.71655" layerid="11" stroke-width="0"/><circle c_etype="pad_hole" cx="4075.118" cy="3241.492" r="11.811" layerid="11" stroke-width="0"/></g><polyline points="4028.7381 3353.1999 4090.0761 3353.1999" stroke-width="1"  stroke-linecap="round" fill="none" layerid="3" net="" id="gge99" locked="0" /><polyline points="4090.0761 3353.1599 4090.0761 3383.0819" stroke-width="1"  stroke-linecap="round" fill="none" layerid="3" net="" id="gge100" locked="0" /><polyline points="4028.7381 3358.9489 4090.0761 3358.9489" stroke-width="1"  stroke-linecap="round" fill="none" layerid="3" net="" id="gge101" locked="0" /><polyline points="4028.7381 3378.5939 4090.0761 3378.5939" stroke-width="1"  stroke-linecap="round" fill="none" layerid="3" net="" id="gge102" locked="0" /><polyline points="4036.2251 3353.4689 4036.2251 3355.5949 4042.2481 3355.5949 4042.2481 3353.4689" stroke-width="1"  stroke-linecap="round" fill="none" layerid="3" net="" id="gge103" locked="0" /><polyline points="4028.7381 3383.1999 4090.0761 3383.1999" stroke-width="1"  stroke-linecap="round" fill="none" layerid="3" net="" id="gge104" locked="0" /><polyline points="4028.7381 3381.0739 4090.0761 3381.0739" stroke-width="1"  stroke-linecap="round" fill="none" layerid="3" net="" id="gge105" locked="0" /><polyline points="4028.6201 3353.2779 4028.6201 3383.1999" stroke-width="1"  stroke-linecap="round" fill="none" layerid="3" net="" id="gge106" locked="0" /><polyline points="4056.3381 3353.4309 4056.3381 3355.5569 4062.3611 3355.5569 4062.3611 3353.4309" stroke-width="1"  stroke-linecap="round" fill="none" layerid="3" net="" id="gge107" locked="0" /><polyline points="4076.0151 3353.3129 4076.0151 3355.4389 4082.0381 3355.4389 4082.0381 3353.3129" stroke-width="1"  stroke-linecap="round" fill="none" layerid="3" net="" id="gge108" locked="0" /><polyline points="4071.1811 3088.4329 4073.1496 3088.4329" stroke-width="1"  stroke-linecap="round" fill="none" layerid="3" net="" id="gge131" locked="0" /><polyline points="4045.5906 3088.4329 4047.5591 3088.4329" stroke-width="1"  stroke-linecap="round" fill="none" layerid="3" net="" id="gge132" locked="0" /><polyline points="4047.5591 3073.4723 4071.1811 3073.4723" stroke-width="1"  stroke-linecap="round" fill="none" layerid="3" net="" id="gge133" locked="0" /><polyline points="4047.5591 3088.4329 4047.5591 3073.4723" stroke-width="1"  stroke-linecap="round" fill="none" layerid="3" net="" id="gge134" locked="0" /><polyline points="4071.1811 3088.4329 4071.1811 3073.4723" stroke-width="1"  stroke-linecap="round" fill="none" layerid="3" net="" id="gge135" locked="0" /><polyline points="4045.5906 3139.614 4073.1496 3139.614 4073.1496 3139.614" stroke-width="1"  stroke-linecap="round" fill="none" layerid="3" net="" id="gge136" locked="0" /><polyline points="4045.5906 3088.4329 4045.5906 3139.614" stroke-width="1"  stroke-linecap="round" fill="none" layerid="3" net="" id="gge137" locked="0" /><polyline points="4073.1496 3088.4329 4073.1496 3139.614" stroke-width="1"  stroke-linecap="round" fill="none" layerid="3" net="" id="gge138" locked="0" /><g c_partid="part_pcbtext" c_etype="pinpart" c_origin="4075.118,3396.504" c_rotation="0" c_mirror="0" id="gge476" locked="0" layerid="3" c_shapetype="group" ><path c_fontsize="3.937" c_fontfamily="" c_text="SLEEVE" d="M 4077.62 3393.067 L 4077.27 3392.707 L 4076.73 3392.527 L 4076.01 3392.527 L 4075.48 3392.707 L 4075.12 3393.067 L 4075.12 3393.427 L 4075.3 3393.787 L 4075.48 3393.967 L 4075.83 3394.137 L 4076.91 3394.497 L 4077.27 3394.677 L 4077.44 3394.857 L 4077.62 3395.217 L 4077.62 3395.757 L 4077.27 3396.107 L 4076.73 3396.287 L 4076.01 3396.287 L 4075.48 3396.107 L 4075.12 3395.757 M 4078.8 3392.527 L 4078.8 3396.287 M 4078.8 3396.287 L 4080.95 3396.287 M 4082.13 3392.527 L 4082.13 3396.287 M 4082.13 3392.527 L 4084.46 3392.527 M 4082.13 3394.317 L 4083.56 3394.317 M 4082.13 3396.287 L 4084.46 3396.287 M 4085.64 3392.527 L 4085.64 3396.287 M 4085.64 3392.527 L 4087.97 3392.527 M 4085.64 3394.317 L 4087.07 3394.317 M 4085.64 3396.287 L 4087.97 3396.287 M 4089.15 3392.527 L 4090.58 3396.287 M 4092.01 3392.527 L 4090.58 3396.287 M 4093.19 3392.527 L 4093.19 3396.287 M 4093.19 3392.527 L 4095.52 3392.527 M 4093.19 3394.317 L 4094.62 3394.317 M 4093.19 3396.287 L 4095.52 3396.287" fill="none"  stroke-width="0.8"  /></g><g c_partid="part_pcbtext" c_etype="pinpart" c_origin="4051.496,3396.504" c_rotation="0" c_mirror="0" id="gge472" locked="0" layerid="3" c_shapetype="group" ><path c_fontsize="3.937" c_fontfamily="" c_text="SHUNT" d="M 4054.003 3393.067 L 4053.643 3392.707 L 4053.103 3392.527 L 4052.393 3392.527 L 4051.853 3392.707 L 4051.493 3393.067 L 4051.493 3393.427 L 4051.673 3393.787 L 4051.853 3393.967 L 4052.213 3394.137 L 4053.283 3394.497 L 4053.643 3394.677 L 4053.823 3394.857 L 4054.003 3395.217 L 4054.003 3395.757 L 4053.643 3396.107 L 4053.103 3396.287 L 4052.393 3396.287 L 4051.853 3396.107 L 4051.493 3395.757 M 4055.183 3392.527 L 4055.183 3396.287 M 4057.683 3392.527 L 4057.683 3396.287 M 4055.183 3394.317 L 4057.683 3394.317 M 4058.873 3392.527 L 4058.873 3395.217 L 4059.043 3395.757 L 4059.403 3396.107 L 4059.943 3396.287 L 4060.303 3396.287 L 4060.833 3396.107 L 4061.193 3395.757 L 4061.373 3395.217 L 4061.373 3392.527 M 4062.553 3392.527 L 4062.553 3396.287 M 4062.553 3392.527 L 4065.063 3396.287 M 4065.063 3392.527 L 4065.063 3396.287 M 4067.493 3392.527 L 4067.493 3396.287 M 4066.243 3392.527 L 4068.743 3392.527" fill="none"  stroke-width="0.8"  /></g><g c_partid="part_pcbtext" c_etype="pinpart" c_origin="4031.811,3396.504" c_rotation="0" c_mirror="0" id="gge465" locked="0" layerid="3" c_shapetype="group" ><path c_fontsize="3.937" c_fontfamily="" c_text="TIP" d="M 4033.067 3392.53 L 4033.067 3396.29 M 4031.807 3392.53 L 4034.317 3392.53 M 4035.497 3392.53 L 4035.497 3396.29 M 4036.677 3392.53 L 4036.677 3396.29 M 4036.677 3392.53 L 4038.287 3392.53 L 4038.827 3392.71 L 4039.007 3392.89 L 4039.187 3393.25 L 4039.187 3393.78 L 4039.007 3394.14 L 4038.827 3394.32 L 4038.287 3394.5 L 4036.677 3394.5" fill="none"  stroke-width="0.8"  /></g><g c_partid="part_pcbtext" c_etype="pinpart" c_origin="4049.528,3343.354" c_rotation="0" c_mirror="0" id="gge495" locked="0" layerid="3" c_shapetype="group" ><path c_fontsize="3.937" c_fontfamily="" c_text="SHUNT" d="M 4052.0345 3339.9174 L 4051.6745 3339.5574 L 4051.1345 3339.3774 L 4050.4245 3339.3774 L 4049.8845 3339.5574 L 4049.5245 3339.9174 L 4049.5245 3340.2774 L 4049.7045 3340.6374 L 4049.8845 3340.8174 L 4050.2445 3340.9874 L 4051.3145 3341.3474 L 4051.6745 3341.5274 L 4051.8545 3341.7074 L 4052.0345 3342.0674 L 4052.0345 3342.6074 L 4051.6745 3342.9574 L 4051.1345 3343.1374 L 4050.4245 3343.1374 L 4049.8845 3342.9574 L 4049.5245 3342.6074 M 4053.2145 3339.3774 L 4053.2145 3343.1374 M 4055.7145 3339.3774 L 4055.7145 3343.1374 M 4053.2145 3341.1674 L 4055.7145 3341.1674 M 4056.9045 3339.3774 L 4056.9045 3342.0674 L 4057.0745 3342.6074 L 4057.4345 3342.9574 L 4057.9745 3343.1374 L 4058.3345 3343.1374 L 4058.8645 3342.9574 L 4059.2245 3342.6074 L 4059.4045 3342.0674 L 4059.4045 3339.3774 M 4060.5845 3339.3774 L 4060.5845 3343.1374 M 4060.5845 3339.3774 L 4063.0945 3343.1374 M 4063.0945 3339.3774 L 4063.0945 3343.1374 M 4065.5245 3339.3774 L 4065.5245 3343.1374 M 4064.2745 3339.3774 L 4066.7745 3339.3774" fill="none"  stroke-width="0.8"  /></g><g c_partid="part_pcbtext" c_etype="pinpart" c_origin="4029.843,3343.354" c_rotation="0" c_mirror="0" id="gge496" locked="0" layerid="3" c_shapetype="group" ><path c_fontsize="3.937" c_fontfamily="" c_text="TIP" d="M 4031.0985 3339.3804 L 4031.0985 3343.1404 M 4029.8385 3339.3804 L 4032.3485 3339.3804 M 4033.5285 3339.3804 L 4033.5285 3343.1404 M 4034.7085 3339.3804 L 4034.7085 3343.1404 M 4034.7085 3339.3804 L 4036.3185 3339.3804 L 4036.8585 3339.5604 L 4037.0385 3339.7404 L 4037.2185 3340.1004 L 4037.2185 3340.6304 L 4037.0385 3340.9904 L 4036.8585 3341.1704 L 4036.3185 3341.3504 L 4034.7085 3341.3504" fill="none"  stroke-width="0.8"  /></g><g c_partid="part_pcbtext" c_etype="pinpart" c_origin="4073.15,3343.354" c_rotation="0" c_mirror="0" id="gge497" locked="0" layerid="3" c_shapetype="group" ><path c_fontsize="3.937" c_fontfamily="" c_text="SLEEVE" d="M 4075.6515 3339.9174 L 4075.3015 3339.5574 L 4074.7615 3339.3774 L 4074.0415 3339.3774 L 4073.5115 3339.5574 L 4073.1515 3339.9174 L 4073.1515 3340.2774 L 4073.3315 3340.6374 L 4073.5115 3340.8174 L 4073.8615 3340.9874 L 4074.9415 3341.3474 L 4075.3015 3341.5274 L 4075.4715 3341.7074 L 4075.6515 3342.0674 L 4075.6515 3342.6074 L 4075.3015 3342.9574 L 4074.7615 3343.1374 L 4074.0415 3343.1374 L 4073.5115 3342.9574 L 4073.1515 3342.6074 M 4076.8315 3339.3774 L 4076.8315 3343.1374 M 4076.8315 3343.1374 L 4078.9815 3343.1374 M 4080.1615 3339.3774 L 4080.1615 3343.1374 M 4080.1615 3339.3774 L 4082.4915 3339.3774 M 4080.1615 3341.1674 L 4081.5915 3341.1674 M 4080.1615 3343.1374 L 4082.4915 3343.1374 M 4083.6715 3339.3774 L 4083.6715 3343.1374 M 4083.6715 3339.3774 L 4086.0015 3339.3774 M 4083.6715 3341.1674 L 4085.1015 3341.1674 M 4083.6715 3343.1374 L 4086.0015 3343.1374 M 4087.1815 3339.3774 L 4088.6115 3343.1374 M 4090.0415 3339.3774 L 4088.6115 3343.1374 M 4091.2215 3339.3774 L 4091.2215 3343.1374 M 4091.2215 3339.3774 L 4093.5515 3339.3774 M 4091.2215 3341.1674 L 4092.6515 3341.1674 M 4091.2215 3343.1374 L 4093.5515 3343.1374" fill="none"  stroke-width="0.8"  /></g><g c_partid="part_pcbtext" c_etype="pinpart" c_origin="4049.528,3302.016" c_rotation="0" c_mirror="0" id="gge507" locked="0" layerid="3" c_shapetype="group" ><path c_fontsize="3.937" c_fontfamily="" c_text="SHUNT" d="M 4052.0345 3298.5788 L 4051.6745 3298.2188 L 4051.1345 3298.0388 L 4050.4245 3298.0388 L 4049.8845 3298.2188 L 4049.5245 3298.5788 L 4049.5245 3298.9388 L 4049.7045 3299.2988 L 4049.8845 3299.4788 L 4050.2445 3299.6488 L 4051.3145 3300.0088 L 4051.6745 3300.1888 L 4051.8545 3300.3688 L 4052.0345 3300.7288 L 4052.0345 3301.2688 L 4051.6745 3301.6188 L 4051.1345 3301.7988 L 4050.4245 3301.7988 L 4049.8845 3301.6188 L 4049.5245 3301.2688 M 4053.2145 3298.0388 L 4053.2145 3301.7988 M 4055.7145 3298.0388 L 4055.7145 3301.7988 M 4053.2145 3299.8288 L 4055.7145 3299.8288 M 4056.9045 3298.0388 L 4056.9045 3300.7288 L 4057.0745 3301.2688 L 4057.4345 3301.6188 L 4057.9745 3301.7988 L 4058.3345 3301.7988 L 4058.8645 3301.6188 L 4059.2245 3301.2688 L 4059.4045 3300.7288 L 4059.4045 3298.0388 M 4060.5845 3298.0388 L 4060.5845 3301.7988 M 4060.5845 3298.0388 L 4063.0945 3301.7988 M 4063.0945 3298.0388 L 4063.0945 3301.7988 M 4065.5245 3298.0388 L 4065.5245 3301.7988 M 4064.2745 3298.0388 L 4066.7745 3298.0388" fill="none"  stroke-width="0.8"  /></g><g c_partid="part_pcbtext" c_etype="pinpart" c_origin="4029.843,3302.016" c_rotation="0" c_mirror="0" id="gge508" locked="0" layerid="3" c_shapetype="group" ><path c_fontsize="3.937" c_fontfamily="" c_text="TIP" d="M 4031.0985 3298.0418 L 4031.0985 3301.8018 M 4029.8385 3298.0418 L 4032.3485 3298.0418 M 4033.5285 3298.0418 L 4033.5285 3301.8018 M 4034.7085 3298.0418 L 4034.7085 3301.8018 M 4034.7085 3298.0418 L 4036.3185 3298.0418 L 4036.8585 3298.2218 L 4037.0385 3298.4018 L 4037.2185 3298.7618 L 4037.2185 3299.2918 L 4037.0385 3299.6518 L 4036.8585 3299.8318 L 4036.3185 3300.0118 L 4034.7085 3300.0118" fill="none"  stroke-width="0.8"  /></g><g c_partid="part_pcbtext" c_etype="pinpart" c_origin="4073.15,3302.016" c_rotation="0" c_mirror="0" id="gge509" locked="0" layerid="3" c_shapetype="group" ><path c_fontsize="3.937" c_fontfamily="" c_text="SLEEVE" d="M 4075.6515 3298.5788 L 4075.3015 3298.2188 L 4074.7615 3298.0388 L 4074.0415 3298.0388 L 4073.5115 3298.2188 L 4073.1515 3298.5788 L 4073.1515 3298.9388 L 4073.3315 3299.2988 L 4073.5115 3299.4788 L 4073.8615 3299.6488 L 4074.9415 3300.0088 L 4075.3015 3300.1888 L 4075.4715 3300.3688 L 4075.6515 3300.7288 L 4075.6515 3301.2688 L 4075.3015 3301.6188 L 4074.7615 3301.7988 L 4074.0415 3301.7988 L 4073.5115 3301.6188 L 4073.1515 3301.2688 M 4076.8315 3298.0388 L 4076.8315 3301.7988 M 4076.8315 3301.7988 L 4078.9815 3301.7988 M 4080.1615 3298.0388 L 4080.1615 3301.7988 M 4080.1615 3298.0388 L 4082.4915 3298.0388 M 4080.1615 3299.8288 L 4081.5915 3299.8288 M 4080.1615 3301.7988 L 4082.4915 3301.7988 M 4083.6715 3298.0388 L 4083.6715 3301.7988 M 4083.6715 3298.0388 L 4086.0015 3298.0388 M 4083.6715 3299.8288 L 4085.1015 3299.8288 M 4083.6715 3301.7988 L 4086.0015 3301.7988 M 4087.1815 3298.0388 L 4088.6115 3301.7988 M 4090.0415 3298.0388 L 4088.6115 3301.7988 M 4091.2215 3298.0388 L 4091.2215 3301.7988 M 4091.2215 3298.0388 L 4093.5515 3298.0388 M 4091.2215 3299.8288 L 4092.6515 3299.8288 M 4091.2215 3301.7988 L 4093.5515 3301.7988" fill="none"  stroke-width="0.8"  /></g><g c_partid="part_pcbtext" c_etype="pinpart" c_origin="4023.937,3156.346" c_rotation="0" c_mirror="0" id="gge520" locked="0" layerid="3" c_shapetype="group" ><path c_fontsize="3.937" c_fontfamily="" c_text="TIP" d="M 4025.193 3152.3725 L 4025.193 3156.1325 M 4023.933 3152.3725 L 4026.443 3152.3725 M 4027.623 3152.3725 L 4027.623 3156.1325 M 4028.803 3152.3725 L 4028.803 3156.1325 M 4028.803 3152.3725 L 4030.413 3152.3725 L 4030.953 3152.5525 L 4031.133 3152.7325 L 4031.313 3153.0925 L 4031.313 3153.6225 L 4031.133 3153.9825 L 4030.953 3154.1625 L 4030.413 3154.3425 L 4028.803 3154.3425" fill="none"  stroke-width="0.8"  /></g><g c_partid="part_pcbtext" c_etype="pinpart" c_origin="4067.244,3211.465" c_rotation="0" c_mirror="0" id="gge521" locked="0" layerid="3" c_shapetype="group" ><path c_fontsize="3.937" c_fontfamily="" c_text="SLEEVE" d="M 4069.746 3208.0277 L 4069.396 3207.6677 L 4068.856 3207.4877 L 4068.136 3207.4877 L 4067.606 3207.6677 L 4067.246 3208.0277 L 4067.246 3208.3877 L 4067.426 3208.7477 L 4067.606 3208.9277 L 4067.956 3209.0977 L 4069.036 3209.4577 L 4069.396 3209.6377 L 4069.566 3209.8177 L 4069.746 3210.1777 L 4069.746 3210.7177 L 4069.396 3211.0677 L 4068.856 3211.2477 L 4068.136 3211.2477 L 4067.606 3211.0677 L 4067.246 3210.7177 M 4070.926 3207.4877 L 4070.926 3211.2477 M 4070.926 3211.2477 L 4073.076 3211.2477 M 4074.256 3207.4877 L 4074.256 3211.2477 M 4074.256 3207.4877 L 4076.586 3207.4877 M 4074.256 3209.2777 L 4075.686 3209.2777 M 4074.256 3211.2477 L 4076.586 3211.2477 M 4077.766 3207.4877 L 4077.766 3211.2477 M 4077.766 3207.4877 L 4080.096 3207.4877 M 4077.766 3209.2777 L 4079.196 3209.2777 M 4077.766 3211.2477 L 4080.096 3211.2477 M 4081.276 3207.4877 L 4082.706 3211.2477 M 4084.136 3207.4877 L 4082.706 3211.2477 M 4085.316 3207.4877 L 4085.316 3211.2477 M 4085.316 3207.4877 L 4087.646 3207.4877 M 4085.316 3209.2777 L 4086.746 3209.2777 M 4085.316 3211.2477 L 4087.646 3211.2477" fill="none"  stroke-width="0.8"  /></g><g c_partid="part_pcbtext" c_etype="pinpart" c_origin="4025.906,3134.693" c_rotation="0" c_mirror="0" id="gge531" locked="0" layerid="3" c_shapetype="group" ><path c_fontsize="3.937" c_fontfamily="" c_text="SHUNT" d="M 4028.4124 3131.256 L 4028.0524 3130.896 L 4027.5124 3130.716 L 4026.8024 3130.716 L 4026.2624 3130.896 L 4025.9024 3131.256 L 4025.9024 3131.616 L 4026.0824 3131.976 L 4026.2624 3132.156 L 4026.6224 3132.326 L 4027.6924 3132.686 L 4028.0524 3132.866 L 4028.2324 3133.046 L 4028.4124 3133.406 L 4028.4124 3133.946 L 4028.0524 3134.296 L 4027.5124 3134.476 L 4026.8024 3134.476 L 4026.2624 3134.296 L 4025.9024 3133.946 M 4029.5924 3130.716 L 4029.5924 3134.476 M 4032.0924 3130.716 L 4032.0924 3134.476 M 4029.5924 3132.506 L 4032.0924 3132.506 M 4033.2824 3130.716 L 4033.2824 3133.406 L 4033.4524 3133.946 L 4033.8124 3134.296 L 4034.3524 3134.476 L 4034.7124 3134.476 L 4035.2424 3134.296 L 4035.6024 3133.946 L 4035.7824 3133.406 L 4035.7824 3130.716 M 4036.9624 3130.716 L 4036.9624 3134.476 M 4036.9624 3130.716 L 4039.4724 3134.476 M 4039.4724 3130.716 L 4039.4724 3134.476 M 4041.9024 3130.716 L 4041.9024 3134.476 M 4040.6524 3130.716 L 4043.1524 3130.716" fill="none"  stroke-width="0.8"  /></g><g c_partid="part_pcbtext" c_etype="pinpart" c_origin="4035.748,3115.008" c_rotation="0" c_mirror="0" id="gge532" locked="0" layerid="3" c_shapetype="group" ><path c_fontsize="3.937" c_fontfamily="" c_text="TIP" d="M 4037.004 3111.034 L 4037.004 3114.794 M 4035.744 3111.034 L 4038.254 3111.034 M 4039.434 3111.034 L 4039.434 3114.794 M 4040.614 3111.034 L 4040.614 3114.794 M 4040.614 3111.034 L 4042.224 3111.034 L 4042.764 3111.214 L 4042.944 3111.394 L 4043.124 3111.754 L 4043.124 3112.284 L 4042.944 3112.644 L 4042.764 3112.824 L 4042.224 3113.004 L 4040.614 3113.004" fill="none"  stroke-width="0.8"  /></g><g c_partid="part_pcbtext" c_etype="pinpart" c_origin="4023.937,3095.323" c_rotation="0" c_mirror="0" id="gge533" locked="0" layerid="3" c_shapetype="group" ><path c_fontsize="3.937" c_fontfamily="" c_text="SLEEVE" d="M 4026.4389 3091.8859 L 4026.0889 3091.5259 L 4025.5489 3091.3459 L 4024.8289 3091.3459 L 4024.2989 3091.5259 L 4023.9389 3091.8859 L 4023.9389 3092.2459 L 4024.1189 3092.6059 L 4024.2989 3092.7859 L 4024.6489 3092.9559 L 4025.7289 3093.3159 L 4026.0889 3093.4959 L 4026.2589 3093.6759 L 4026.4389 3094.0359 L 4026.4389 3094.5759 L 4026.0889 3094.9259 L 4025.5489 3095.1059 L 4024.8289 3095.1059 L 4024.2989 3094.9259 L 4023.9389 3094.5759 M 4027.6189 3091.3459 L 4027.6189 3095.1059 M 4027.6189 3095.1059 L 4029.7689 3095.1059 M 4030.9489 3091.3459 L 4030.9489 3095.1059 M 4030.9489 3091.3459 L 4033.2789 3091.3459 M 4030.9489 3093.1359 L 4032.3789 3093.1359 M 4030.9489 3095.1059 L 4033.2789 3095.1059 M 4034.4589 3091.3459 L 4034.4589 3095.1059 M 4034.4589 3091.3459 L 4036.7889 3091.3459 M 4034.4589 3093.1359 L 4035.8889 3093.1359 M 4034.4589 3095.1059 L 4036.7889 3095.1059 M 4037.9689 3091.3459 L 4039.3989 3095.1059 M 4040.8289 3091.3459 L 4039.3989 3095.1059 M 4042.0089 3091.3459 L 4042.0089 3095.1059 M 4042.0089 3091.3459 L 4044.3389 3091.3459 M 4042.0089 3093.1359 L 4043.4389 3093.1359 M 4042.0089 3095.1059 L 4044.3389 3095.1059" fill="none"  stroke-width="0.8"  /></g><g c_partid="part_pcbtext" c_etype="pinpart" c_origin="4092.835,3146.504" c_rotation="90" c_mirror="0" id="gge681" locked="0" layerid="3" c_shapetype="group" ><path c_fontsize="3.937" c_fontfamily="" c_text="Version 1.0.0" d="M 4088.8662 3146.4992 L 4092.6162 3145.0692 M 4088.8662 3143.6392 L 4092.6162 3145.0692 M 4091.1862 3142.4592 L 4091.1862 3140.3092 L 4090.8262 3140.3092 L 4090.4762 3140.4892 L 4090.2962 3140.6692 L 4090.1162 3141.0292 L 4090.1162 3141.5692 L 4090.2962 3141.9192 L 4090.6562 3142.2792 L 4091.1862 3142.4592 L 4091.5462 3142.4592 L 4092.0862 3142.2792 L 4092.4362 3141.9192 L 4092.6162 3141.5692 L 4092.6162 3141.0292 L 4092.4362 3140.6692 L 4092.0862 3140.3092 M 4090.1162 3139.1292 L 4092.6162 3139.1292 M 4091.1862 3139.1292 L 4090.6562 3138.9492 L 4090.2962 3138.5892 L 4090.1162 3138.2392 L 4090.1162 3137.6992 M 4090.6562 3134.5492 L 4090.2962 3134.7292 L 4090.1162 3135.2692 L 4090.1162 3135.7992 L 4090.2962 3136.3392 L 4090.6562 3136.5192 L 4091.0062 3136.3392 L 4091.1862 3135.9792 L 4091.3662 3135.0892 L 4091.5462 3134.7292 L 4091.9062 3134.5492 L 4092.0862 3134.5492 L 4092.4362 3134.7292 L 4092.6162 3135.2692 L 4092.6162 3135.7992 L 4092.4362 3136.3392 L 4092.0862 3136.5192 M 4088.8662 3133.3692 L 4089.0362 3133.1892 L 4088.8662 3133.0092 L 4088.6862 3133.1892 L 4088.8662 3133.3692 M 4090.1162 3133.1892 L 4092.6162 3133.1892 M 4090.1162 3130.9392 L 4090.2962 3131.2892 L 4090.6562 3131.6492 L 4091.1862 3131.8292 L 4091.5462 3131.8292 L 4092.0862 3131.6492 L 4092.4362 3131.2892 L 4092.6162 3130.9392 L 4092.6162 3130.3992 L 4092.4362 3130.0392 L 4092.0862 3129.6792 L 4091.5462 3129.4992 L 4091.1862 3129.4992 L 4090.6562 3129.6792 L 4090.2962 3130.0392 L 4090.1162 3130.3992 L 4090.1162 3130.9392 M 4090.1162 3128.3192 L 4092.6162 3128.3192 M 4090.8262 3128.3192 L 4090.2962 3127.7892 L 4090.1162 3127.4292 L 4090.1162 3126.8892 L 4090.2962 3126.5292 L 4090.8262 3126.3492 L 4092.6162 3126.3492 M 4089.5762 3122.4192 L 4089.3962 3122.0592 L 4088.8662 3121.5192 L 4092.6162 3121.5192 M 4091.7262 3120.1592 L 4091.9062 3120.3392 L 4092.0862 3120.1592 L 4091.9062 3119.9792 L 4091.7262 3120.1592 M 4088.8662 3117.7292 L 4089.0362 3118.2692 L 4089.5762 3118.6192 L 4090.4762 3118.7992 L 4091.0062 3118.7992 L 4091.9062 3118.6192 L 4092.4362 3118.2692 L 4092.6162 3117.7292 L 4092.6162 3117.3692 L 4092.4362 3116.8292 L 4091.9062 3116.4792 L 4091.0062 3116.2992 L 4090.4762 3116.2992 L 4089.5762 3116.4792 L 4089.0362 3116.8292 L 4088.8662 3117.3692 L 4088.8662 3117.7292 M 4091.7262 3114.9392 L 4091.9062 3115.1192 L 4092.0862 3114.9392 L 4091.9062 3114.7592 L 4091.7262 3114.9392 M 4088.8662 3112.4992 L 4089.0362 3113.0392 L 4089.5762 3113.3992 L 4090.4762 3113.5792 L 4091.0062 3113.5792 L 4091.9062 3113.3992 L 4092.4362 3113.0392 L 4092.6162 3112.4992 L 4092.6162 3112.1492 L 4092.4362 3111.6092 L 4091.9062 3111.2492 L 4091.0062 3111.0692 L 4090.4762 3111.0692 L 4089.5762 3111.2492 L 4089.0362 3111.6092 L 4088.8662 3112.1492 L 4088.8662 3112.4992" fill="none"  stroke-width="0.8"  /></g><g c_partid="part_pcbtext" c_etype="pinpart" c_origin="4082.992,3166.189" c_rotation="90" c_mirror="0" id="gge685" locked="0" layerid="3" c_shapetype="group" ><path c_fontsize="3.937" c_fontfamily="" c_text="Audio connector breakout" d="M 4079.0217 3164.7543 L 4082.7817 3166.1843 M 4079.0217 3164.7543 L 4082.7817 3163.3243 M 4081.5217 3165.6543 L 4081.5217 3163.8643 M 4080.2717 3162.1443 L 4082.0617 3162.1443 L 4082.6017 3161.9643 L 4082.7817 3161.6043 L 4082.7817 3161.0743 L 4082.6017 3160.7143 L 4082.0617 3160.1743 M 4080.2717 3160.1743 L 4082.7817 3160.1743 M 4079.0217 3156.8443 L 4082.7817 3156.8443 M 4080.8117 3156.8443 L 4080.4517 3157.2043 L 4080.2717 3157.5643 L 4080.2717 3158.1043 L 4080.4517 3158.4543 L 4080.8117 3158.8143 L 4081.3417 3158.9943 L 4081.7017 3158.9943 L 4082.2417 3158.8143 L 4082.6017 3158.4543 L 4082.7817 3158.1043 L 4082.7817 3157.5643 L 4082.6017 3157.2043 L 4082.2417 3156.8443 M 4079.0217 3155.6643 L 4079.2017 3155.4843 L 4079.0217 3155.3043 L 4078.8417 3155.4843 L 4079.0217 3155.6643 M 4080.2717 3155.4843 L 4082.7817 3155.4843 M 4080.2717 3153.2343 L 4080.4517 3153.5943 L 4080.8117 3153.9443 L 4081.3417 3154.1243 L 4081.7017 3154.1243 L 4082.2417 3153.9443 L 4082.6017 3153.5943 L 4082.7817 3153.2343 L 4082.7817 3152.6943 L 4082.6017 3152.3343 L 4082.2417 3151.9843 L 4081.7017 3151.8043 L 4081.3417 3151.8043 L 4080.8117 3151.9843 L 4080.4517 3152.3343 L 4080.2717 3152.6943 L 4080.2717 3153.2343 M 4080.8117 3145.7143 L 4080.4517 3146.0743 L 4080.2717 3146.4343 L 4080.2717 3146.9643 L 4080.4517 3147.3243 L 4080.8117 3147.6843 L 4081.3417 3147.8643 L 4081.7017 3147.8643 L 4082.2417 3147.6843 L 4082.6017 3147.3243 L 4082.7817 3146.9643 L 4082.7817 3146.4343 L 4082.6017 3146.0743 L 4082.2417 3145.7143 M 4080.2717 3143.6443 L 4080.4517 3143.9943 L 4080.8117 3144.3543 L 4081.3417 3144.5343 L 4081.7017 3144.5343 L 4082.2417 3144.3543 L 4082.6017 3143.9943 L 4082.7817 3143.6443 L 4082.7817 3143.1043 L 4082.6017 3142.7443 L 4082.2417 3142.3843 L 4081.7017 3142.2043 L 4081.3417 3142.2043 L 4080.8117 3142.3843 L 4080.4517 3142.7443 L 4080.2717 3143.1043 L 4080.2717 3143.6443 M 4080.2717 3141.0243 L 4082.7817 3141.0243 M 4080.9917 3141.0243 L 4080.4517 3140.4943 L 4080.2717 3140.1343 L 4080.2717 3139.5943 L 4080.4517 3139.2343 L 4080.9917 3139.0643 L 4082.7817 3139.0643 M 4080.2717 3137.8743 L 4082.7817 3137.8743 M 4080.9917 3137.8743 L 4080.4517 3137.3443 L 4080.2717 3136.9843 L 4080.2717 3136.4443 L 4080.4517 3136.0843 L 4080.9917 3135.9143 L 4082.7817 3135.9143 M 4081.3417 3134.7243 L 4081.3417 3132.5843 L 4080.9917 3132.5843 L 4080.6317 3132.7643 L 4080.4517 3132.9343 L 4080.2717 3133.2943 L 4080.2717 3133.8343 L 4080.4517 3134.1943 L 4080.8117 3134.5543 L 4081.3417 3134.7243 L 4081.7017 3134.7243 L 4082.2417 3134.5543 L 4082.6017 3134.1943 L 4082.7817 3133.8343 L 4082.7817 3133.2943 L 4082.6017 3132.9343 L 4082.2417 3132.5843 M 4080.8117 3129.2543 L 4080.4517 3129.6143 L 4080.2717 3129.9643 L 4080.2717 3130.5043 L 4080.4517 3130.8643 L 4080.8117 3131.2243 L 4081.3417 3131.4043 L 4081.7017 3131.4043 L 4082.2417 3131.2243 L 4082.6017 3130.8643 L 4082.7817 3130.5043 L 4082.7817 3129.9643 L 4082.6017 3129.6143 L 4082.2417 3129.2543 M 4079.0217 3127.5343 L 4082.0617 3127.5343 L 4082.6017 3127.3543 L 4082.7817 3126.9943 L 4082.7817 3126.6443 M 4080.2717 3128.0743 L 4080.2717 3126.8143 M 4080.2717 3124.5643 L 4080.4517 3124.9243 L 4080.8117 3125.2843 L 4081.3417 3125.4543 L 4081.7017 3125.4543 L 4082.2417 3125.2843 L 4082.6017 3124.9243 L 4082.7817 3124.5643 L 4082.7817 3124.0243 L 4082.6017 3123.6743 L 4082.2417 3123.3143 L 4081.7017 3123.1343 L 4081.3417 3123.1343 L 4080.8117 3123.3143 L 4080.4517 3123.6743 L 4080.2717 3124.0243 L 4080.2717 3124.5643 M 4080.2717 3121.9543 L 4082.7817 3121.9543 M 4081.3417 3121.9543 L 4080.8117 3121.7743 L 4080.4517 3121.4143 L 4080.2717 3121.0543 L 4080.2717 3120.5243 M 4079.0217 3116.5843 L 4082.7817 3116.5843 M 4080.8117 3116.5843 L 4080.4517 3116.2243 L 4080.2717 3115.8643 L 4080.2717 3115.3343 L 4080.4517 3114.9743 L 4080.8117 3114.6143 L 4081.3417 3114.4343 L 4081.7017 3114.4343 L 4082.2417 3114.6143 L 4082.6017 3114.9743 L 4082.7817 3115.3343 L 4082.7817 3115.8643 L 4082.6017 3116.2243 L 4082.2417 3116.5843 M 4080.2717 3113.2543 L 4082.7817 3113.2543 M 4081.3417 3113.2543 L 4080.8117 3113.0743 L 4080.4517 3112.7143 L 4080.2717 3112.3643 L 4080.2717 3111.8243 M 4081.3417 3110.6443 L 4081.3417 3108.4943 L 4080.9917 3108.4943 L 4080.6317 3108.6743 L 4080.4517 3108.8543 L 4080.2717 3109.2143 L 4080.2717 3109.7443 L 4080.4517 3110.1043 L 4080.8117 3110.4643 L 4081.3417 3110.6443 L 4081.7017 3110.6443 L 4082.2417 3110.4643 L 4082.6017 3110.1043 L 4082.7817 3109.7443 L 4082.7817 3109.2143 L 4082.6017 3108.8543 L 4082.2417 3108.4943 M 4080.2717 3105.1643 L 4082.7817 3105.1643 M 4080.8117 3105.1643 L 4080.4517 3105.5243 L 4080.2717 3105.8843 L 4080.2717 3106.4143 L 4080.4517 3106.7743 L 4080.8117 3107.1343 L 4081.3417 3107.3143 L 4081.7017 3107.3143 L 4082.2417 3107.1343 L 4082.6017 3106.7743 L 4082.7817 3106.4143 L 4082.7817 3105.8843 L 4082.6017 3105.5243 L 4082.2417 3105.1643 M 4079.0217 3103.9843 L 4082.7817 3103.9843 M 4080.2717 3102.1943 L 4082.0617 3103.9843 M 4081.3417 3103.2643 L 4082.7817 3102.0143 M 4080.2717 3099.9443 L 4080.4517 3100.2943 L 4080.8117 3100.6543 L 4081.3417 3100.8343 L 4081.7017 3100.8343 L 4082.2417 3100.6543 L 4082.6017 3100.2943 L 4082.7817 3099.9443 L 4082.7817 3099.4043 L 4082.6017 3099.0443 L 4082.2417 3098.6843 L 4081.7017 3098.5043 L 4081.3417 3098.5043 L 4080.8117 3098.6843 L 4080.4517 3099.0443 L 4080.2717 3099.4043 L 4080.2717 3099.9443 M 4080.2717 3097.3243 L 4082.0617 3097.3243 L 4082.6017 3097.1443 L 4082.7817 3096.7943 L 4082.7817 3096.2543 L 4082.6017 3095.8943 L 4082.0617 3095.3543 M 4080.2717 3095.3543 L 4082.7817 3095.3543 M 4079.0217 3093.6443 L 4082.0617 3093.6443 L 4082.6017 3093.4643 L 4082.7817 3093.1043 L 4082.7817 3092.7443 M 4080.2717 3094.1743 L 4080.2717 3092.9243" fill="none"  stroke-width="0.8"  /></g><g c_partid="part_pcbtext" c_etype="" c_origin="4058.525,3343.945" c_rotation="0" c_mirror="0" id="gge95" locked="0" layerid="3" c_shapetype="group" display="none"><path c_fontsize="4.5" c_fontfamily="" c_text="WJ301V-5.0-3P" d="M 4058.5252 3339.4047 L 4059.5452 3343.6947 M 4060.5752 3339.4047 L 4059.5452 3343.6947 M 4060.5752 3339.4047 L 4061.5952 3343.6947 M 4062.6152 3339.4047 L 4061.5952 3343.6947 M 4066.0152 3339.4047 L 4066.0152 3342.6747 L 4065.8052 3343.2947 L 4065.6052 3343.4947 L 4065.1952 3343.6947 L 4064.7852 3343.6947 L 4064.3752 3343.4947 L 4064.1752 3343.2947 L 4063.9652 3342.6747 L 4063.9652 3342.2647 M 4067.7752 3339.4047 L 4070.0252 3339.4047 L 4068.7952 3341.0447 L 4069.4052 3341.0447 L 4069.8152 3341.2447 L 4070.0252 3341.4447 L 4070.2252 3342.0647 L 4070.2252 3342.4747 L 4070.0252 3343.0847 L 4069.6152 3343.4947 L 4068.9952 3343.6947 L 4068.3852 3343.6947 L 4067.7752 3343.4947 L 4067.5652 3343.2947 L 4067.3652 3342.8847 M 4072.8052 3339.4047 L 4072.1852 3339.6047 L 4071.7752 3340.2247 L 4071.5752 3341.2447 L 4071.5752 3341.8547 L 4071.7752 3342.8847 L 4072.1852 3343.4947 L 4072.8052 3343.6947 L 4073.2152 3343.6947 L 4073.8252 3343.4947 L 4074.2352 3342.8847 L 4074.4352 3341.8547 L 4074.4352 3341.2447 L 4074.2352 3340.2247 L 4073.8252 3339.6047 L 4073.2152 3339.4047 L 4072.8052 3339.4047 M 4075.7852 3340.2247 L 4076.1952 3340.0147 L 4076.8152 3339.4047 L 4076.8152 3343.6947 M 4078.1652 3339.4047 L 4079.7952 3343.6947 M 4081.4352 3339.4047 L 4079.7952 3343.6947 M 4082.7852 3341.8547 L 4086.4652 3341.8547 M 4090.2752 3339.4047 L 4088.2252 3339.4047 L 4088.0252 3341.2447 L 4088.2252 3341.0447 L 4088.8352 3340.8347 L 4089.4552 3340.8347 L 4090.0652 3341.0447 L 4090.4752 3341.4447 L 4090.6752 3342.0647 L 4090.6752 3342.4747 L 4090.4752 3343.0847 L 4090.0652 3343.4947 L 4089.4552 3343.6947 L 4088.8352 3343.6947 L 4088.2252 3343.4947 L 4088.0252 3343.2947 L 4087.8152 3342.8847 M 4092.2352 3342.6747 L 4092.0252 3342.8847 L 4092.2352 3343.0847 L 4092.4352 3342.8847 L 4092.2352 3342.6747 M 4095.0152 3339.4047 L 4094.4052 3339.6047 L 4093.9952 3340.2247 L 4093.7852 3341.2447 L 4093.7852 3341.8547 L 4093.9952 3342.8847 L 4094.4052 3343.4947 L 4095.0152 3343.6947 L 4095.4252 3343.6947 L 4096.0352 3343.4947 L 4096.4452 3342.8847 L 4096.6552 3341.8547 L 4096.6552 3341.2447 L 4096.4452 3340.2247 L 4096.0352 3339.6047 L 4095.4252 3339.4047 L 4095.0152 3339.4047 M 4098.0052 3341.8547 L 4101.6852 3341.8547 M 4103.4452 3339.4047 L 4105.6952 3339.4047 L 4104.4652 3341.0447 L 4105.0752 3341.0447 L 4105.4852 3341.2447 L 4105.6952 3341.4447 L 4105.8952 3342.0647 L 4105.8952 3342.4747 L 4105.6952 3343.0847 L 4105.2852 3343.4947 L 4104.6752 3343.6947 L 4104.0552 3343.6947 L 4103.4452 3343.4947 L 4103.2352 3343.2947 L 4103.0352 3342.8847 M 4107.2452 3339.4047 L 4107.2452 3343.6947 M 4107.2452 3339.4047 L 4109.0852 3339.4047 L 4109.7052 3339.6047 L 4109.9052 3339.8147 L 4110.1152 3340.2247 L 4110.1152 3340.8347 L 4109.9052 3341.2447 L 4109.7052 3341.4447 L 4109.0852 3341.6547 L 4107.2452 3341.6547" fill="none"  stroke-width="0.6" c_note="note_name" /></g><g c_partid="part_pcbtext" c_etype="" c_origin="4059.37,3329.575" c_rotation="0" c_mirror="0" id="gge97" locked="0" layerid="3" c_shapetype="group" display="none"><path c_fontsize="4.5" c_fontfamily="" c_text="J2" d="M 4061.4201 3325.0349 L 4061.4201 3328.3049 L 4061.2101 3328.9249 L 4061.0101 3329.1249 L 4060.6001 3329.3249 L 4060.1901 3329.3249 L 4059.7801 3329.1249 L 4059.5701 3328.9249 L 4059.3701 3328.3049 L 4059.3701 3327.8949 M 4062.9701 3326.0549 L 4062.9701 3325.8549 L 4063.1701 3325.4449 L 4063.3801 3325.2349 L 4063.7901 3325.0349 L 4064.6101 3325.0349 L 4065.0201 3325.2349 L 4065.2201 3325.4449 L 4065.4201 3325.8549 L 4065.4201 3326.2649 L 4065.2201 3326.6749 L 4064.8101 3327.2849 L 4062.7701 3329.3249 L 4065.6301 3329.3249" fill="none"  stroke-width="0.6" c_note="note_pre" /></g><g c_partid="part_pcbtext" c_etype="" c_origin="4058.37,3063.435" c_rotation="0" c_mirror="0" id="gge3" locked="0" layerid="3" c_shapetype="group" display="none"><path c_fontsize="4.5" c_fontfamily="" c_text="PJ-3136-3A" d="M 4058.3701 3058.8929 L 4058.3701 3063.1929 M 4058.3701 3058.8929 L 4060.2101 3058.8929 L 4060.8201 3059.1029 L 4061.0301 3059.3029 L 4061.2301 3059.7129 L 4061.2301 3060.3229 L 4061.0301 3060.7329 L 4060.8201 3060.9429 L 4060.2101 3061.1429 L 4058.3701 3061.1429 M 4064.6301 3058.8929 L 4064.6301 3062.1629 L 4064.4201 3062.7829 L 4064.2201 3062.9829 L 4063.8101 3063.1929 L 4063.4001 3063.1929 L 4062.9901 3062.9829 L 4062.7901 3062.7829 L 4062.5801 3062.1629 L 4062.5801 3061.7629 M 4065.9801 3061.3529 L 4069.6601 3061.3529 M 4071.4201 3058.8929 L 4073.6701 3058.8929 L 4072.4401 3060.5329 L 4073.0601 3060.5329 L 4073.4701 3060.7329 L 4073.6701 3060.9429 L 4073.8701 3061.5529 L 4073.8701 3061.9629 L 4073.6701 3062.5729 L 4073.2601 3062.9829 L 4072.6501 3063.1929 L 4072.0301 3063.1929 L 4071.4201 3062.9829 L 4071.2201 3062.7829 L 4071.0101 3062.3729 M 4075.2201 3059.7129 L 4075.6301 3059.5129 L 4076.2501 3058.8929 L 4076.2501 3063.1929 M 4078.0101 3058.8929 L 4080.2601 3058.8929 L 4079.0301 3060.5329 L 4079.6401 3060.5329 L 4080.0501 3060.7329 L 4080.2601 3060.9429 L 4080.4601 3061.5529 L 4080.4601 3061.9629 L 4080.2601 3062.5729 L 4079.8501 3062.9829 L 4079.2301 3063.1929 L 4078.6201 3063.1929 L 4078.0101 3062.9829 L 4077.8001 3062.7829 L 4077.6001 3062.3729 M 4084.2701 3059.5129 L 4084.0601 3059.1029 L 4083.4501 3058.8929 L 4083.0401 3058.8929 L 4082.4201 3059.1029 L 4082.0201 3059.7129 L 4081.8101 3060.7329 L 4081.8101 3061.7629 L 4082.0201 3062.5729 L 4082.4201 3062.9829 L 4083.0401 3063.1929 L 4083.2401 3063.1929 L 4083.8601 3062.9829 L 4084.2701 3062.5729 L 4084.4701 3061.9629 L 4084.4701 3061.7629 L 4084.2701 3061.1429 L 4083.8601 3060.7329 L 4083.2401 3060.5329 L 4083.0401 3060.5329 L 4082.4201 3060.7329 L 4082.0201 3061.1429 L 4081.8101 3061.7629 M 4085.8201 3061.3529 L 4089.5001 3061.3529 M 4091.2601 3058.8929 L 4093.5101 3058.8929 L 4092.2801 3060.5329 L 4092.9001 3060.5329 L 4093.3101 3060.7329 L 4093.5101 3060.9429 L 4093.7201 3061.5529 L 4093.7201 3061.9629 L 4093.5101 3062.5729 L 4093.1001 3062.9829 L 4092.4901 3063.1929 L 4091.8701 3063.1929 L 4091.2601 3062.9829 L 4091.0601 3062.7829 L 4090.8501 3062.3729 M 4096.7001 3058.8929 L 4095.0701 3063.1929 M 4096.7001 3058.8929 L 4098.3401 3063.1929 M 4095.6801 3061.7629 L 4097.7201 3061.7629" fill="none"  stroke-width="0.6" c_note="note_name" /></g><g c_partid="part_pcbtext" c_etype="" c_origin="4058.37,3070.435" c_rotation="0" c_mirror="0" id="gge5" locked="0" layerid="3" c_shapetype="group" display="none"><path c_fontsize="4.5" c_fontfamily="" c_text="J1" d="M 4060.4201 3065.8929 L 4060.4201 3069.1629 L 4060.2101 3069.7829 L 4060.0101 3069.9829 L 4059.6001 3070.1929 L 4059.1901 3070.1929 L 4058.7801 3069.9829 L 4058.5701 3069.7829 L 4058.3701 3069.1629 L 4058.3701 3068.7629 M 4061.7701 3066.7129 L 4062.1701 3066.5129 L 4062.7901 3065.8929 L 4062.7901 3070.1929" fill="none"  stroke-width="0.6" c_note="note_pre" /></g><g c_partid="part_pcbtext" c_etype="" c_origin="4065.055,3290.205" c_rotation="90" c_mirror="0" id="gge294" locked="0" layerid="3" c_shapetype="group" display="none"><path c_fontsize="4.5" c_fontfamily="" c_text="5001" d="M 4060.5151 3287.7547 L 4060.5151 3289.7947 L 4062.3551 3290.0047 L 4062.1551 3289.7947 L 4061.9451 3289.1847 L 4061.9451 3288.5647 L 4062.1551 3287.9547 L 4062.5551 3287.5447 L 4063.1751 3287.3447 L 4063.5851 3287.3447 L 4064.1951 3287.5447 L 4064.6051 3287.9547 L 4064.8051 3288.5647 L 4064.8051 3289.1847 L 4064.6051 3289.7947 L 4064.4051 3290.0047 L 4063.9951 3290.2047 M 4060.5151 3284.7647 L 4060.7151 3285.3747 L 4061.3351 3285.7847 L 4062.3551 3285.9947 L 4062.9651 3285.9947 L 4063.9951 3285.7847 L 4064.6051 3285.3747 L 4064.8051 3284.7647 L 4064.8051 3284.3547 L 4064.6051 3283.7447 L 4063.9951 3283.3347 L 4062.9651 3283.1247 L 4062.3551 3283.1247 L 4061.3351 3283.3347 L 4060.7151 3283.7447 L 4060.5151 3284.3547 L 4060.5151 3284.7647 M 4060.5151 3280.5547 L 4060.7151 3281.1647 L 4061.3351 3281.5747 L 4062.3551 3281.7747 L 4062.9651 3281.7747 L 4063.9951 3281.5747 L 4064.6051 3281.1647 L 4064.8051 3280.5547 L 4064.8051 3280.1447 L 4064.6051 3279.5247 L 4063.9951 3279.1147 L 4062.9651 3278.9147 L 4062.3551 3278.9147 L 4061.3351 3279.1147 L 4060.7151 3279.5247 L 4060.5151 3280.1447 L 4060.5151 3280.5547 M 4061.3351 3277.5647 L 4061.1251 3277.1547 L 4060.5151 3276.5447 L 4064.8051 3276.5447" fill="none"  stroke-width="0.6" c_note="note_name" /></g><g c_partid="part_pcbtext" c_etype="" c_origin="4072.055,3290.205" c_rotation="90" c_mirror="0" id="gge296" locked="0" layerid="3" c_shapetype="group" display="none"><path c_fontsize="4.5" c_fontfamily="" c_text="J4" d="M 4067.5151 3288.1547 L 4070.7851 3288.1547 L 4071.4051 3288.3647 L 4071.6051 3288.5647 L 4071.8051 3288.9747 L 4071.8051 3289.3847 L 4071.6051 3289.7947 L 4071.4051 3290.0047 L 4070.7851 3290.2047 L 4070.3751 3290.2047 M 4067.5151 3284.7647 L 4070.3751 3286.8047 L 4070.3751 3283.7447 M 4067.5151 3284.7647 L 4071.8051 3284.7647" fill="none"  stroke-width="0.6" c_note="note_pre" /></g><g c_partid="part_pcbtext" c_etype="" c_origin="4045.37,3290.205" c_rotation="90" c_mirror="0" id="gge311" locked="0" layerid="3" c_shapetype="group" display="none"><path c_fontsize="4.5" c_fontfamily="" c_text="5001" d="M 4040.8301 3287.7547 L 4040.8301 3289.7947 L 4042.6701 3290.0047 L 4042.4701 3289.7947 L 4042.2601 3289.1847 L 4042.2601 3288.5647 L 4042.4701 3287.9547 L 4042.8701 3287.5447 L 4043.4901 3287.3447 L 4043.9001 3287.3447 L 4044.5101 3287.5447 L 4044.9201 3287.9547 L 4045.1201 3288.5647 L 4045.1201 3289.1847 L 4044.9201 3289.7947 L 4044.7201 3290.0047 L 4044.3101 3290.2047 M 4040.8301 3284.7647 L 4041.0301 3285.3747 L 4041.6501 3285.7847 L 4042.6701 3285.9947 L 4043.2801 3285.9947 L 4044.3101 3285.7847 L 4044.9201 3285.3747 L 4045.1201 3284.7647 L 4045.1201 3284.3547 L 4044.9201 3283.7447 L 4044.3101 3283.3347 L 4043.2801 3283.1247 L 4042.6701 3283.1247 L 4041.6501 3283.3347 L 4041.0301 3283.7447 L 4040.8301 3284.3547 L 4040.8301 3284.7647 M 4040.8301 3280.5547 L 4041.0301 3281.1647 L 4041.6501 3281.5747 L 4042.6701 3281.7747 L 4043.2801 3281.7747 L 4044.3101 3281.5747 L 4044.9201 3281.1647 L 4045.1201 3280.5547 L 4045.1201 3280.1447 L 4044.9201 3279.5247 L 4044.3101 3279.1147 L 4043.2801 3278.9147 L 4042.6701 3278.9147 L 4041.6501 3279.1147 L 4041.0301 3279.5247 L 4040.8301 3280.1447 L 4040.8301 3280.5547 M 4041.6501 3277.5647 L 4041.4401 3277.1547 L 4040.8301 3276.5447 L 4045.1201 3276.5447" fill="none"  stroke-width="0.6" c_note="note_name" /></g><g c_partid="part_pcbtext" c_etype="" c_origin="4052.37,3290.205" c_rotation="90" c_mirror="0" id="gge313" locked="0" layerid="3" c_shapetype="group" display="none"><path c_fontsize="4.5" c_fontfamily="" c_text="J5" d="M 4047.8301 3288.1547 L 4051.1001 3288.1547 L 4051.7201 3288.3647 L 4051.9201 3288.5647 L 4052.1201 3288.9747 L 4052.1201 3289.3847 L 4051.9201 3289.7947 L 4051.7201 3290.0047 L 4051.1001 3290.2047 L 4050.6901 3290.2047 M 4047.8301 3284.3547 L 4047.8301 3286.4047 L 4049.6701 3286.6047 L 4049.4701 3286.4047 L 4049.2601 3285.7847 L 4049.2601 3285.1747 L 4049.4701 3284.5547 L 4049.8701 3284.1547 L 4050.4901 3283.9447 L 4050.9001 3283.9447 L 4051.5101 3284.1547 L 4051.9201 3284.5547 L 4052.1201 3285.1747 L 4052.1201 3285.7847 L 4051.9201 3286.4047 L 4051.7201 3286.6047 L 4051.3101 3286.8047" fill="none"  stroke-width="0.6" c_note="note_pre" /></g><g c_partid="part_pcbtext" c_etype="" c_origin="4045.37,3329.575" c_rotation="90" c_mirror="0" id="gge328" locked="0" layerid="3" c_shapetype="group" display="none"><path c_fontsize="4.5" c_fontfamily="" c_text="5001" d="M 4040.8301 3327.1248 L 4040.8301 3329.1648 L 4042.6701 3329.3748 L 4042.4701 3329.1648 L 4042.2601 3328.5548 L 4042.2601 3327.9348 L 4042.4701 3327.3248 L 4042.8701 3326.9148 L 4043.4901 3326.7148 L 4043.9001 3326.7148 L 4044.5101 3326.9148 L 4044.9201 3327.3248 L 4045.1201 3327.9348 L 4045.1201 3328.5548 L 4044.9201 3329.1648 L 4044.7201 3329.3748 L 4044.3101 3329.5748 M 4040.8301 3324.1348 L 4041.0301 3324.7448 L 4041.6501 3325.1548 L 4042.6701 3325.3648 L 4043.2801 3325.3648 L 4044.3101 3325.1548 L 4044.9201 3324.7448 L 4045.1201 3324.1348 L 4045.1201 3323.7248 L 4044.9201 3323.1148 L 4044.3101 3322.7048 L 4043.2801 3322.4948 L 4042.6701 3322.4948 L 4041.6501 3322.7048 L 4041.0301 3323.1148 L 4040.8301 3323.7248 L 4040.8301 3324.1348 M 4040.8301 3319.9248 L 4041.0301 3320.5348 L 4041.6501 3320.9448 L 4042.6701 3321.1448 L 4043.2801 3321.1448 L 4044.3101 3320.9448 L 4044.9201 3320.5348 L 4045.1201 3319.9248 L 4045.1201 3319.5148 L 4044.9201 3318.8948 L 4044.3101 3318.4848 L 4043.2801 3318.2848 L 4042.6701 3318.2848 L 4041.6501 3318.4848 L 4041.0301 3318.8948 L 4040.8301 3319.5148 L 4040.8301 3319.9248 M 4041.6501 3316.9348 L 4041.4401 3316.5248 L 4040.8301 3315.9148 L 4045.1201 3315.9148" fill="none"  stroke-width="0.6" c_note="note_name" /></g><g c_partid="part_pcbtext" c_etype="" c_origin="4052.37,3329.575" c_rotation="90" c_mirror="0" id="gge330" locked="0" layerid="3" c_shapetype="group" display="none"><path c_fontsize="4.5" c_fontfamily="" c_text="J6" d="M 4047.8301 3327.5248 L 4051.1001 3327.5248 L 4051.7201 3327.7348 L 4051.9201 3327.9348 L 4052.1201 3328.3448 L 4052.1201 3328.7548 L 4051.9201 3329.1648 L 4051.7201 3329.3748 L 4051.1001 3329.5748 L 4050.6901 3329.5748 M 4048.4401 3323.7248 L 4048.0301 3323.9248 L 4047.8301 3324.5448 L 4047.8301 3324.9548 L 4048.0301 3325.5648 L 4048.6501 3325.9748 L 4049.6701 3326.1748 L 4050.6901 3326.1748 L 4051.5101 3325.9748 L 4051.9201 3325.5648 L 4052.1201 3324.9548 L 4052.1201 3324.7448 L 4051.9201 3324.1348 L 4051.5101 3323.7248 L 4050.9001 3323.5248 L 4050.6901 3323.5248 L 4050.0801 3323.7248 L 4049.6701 3324.1348 L 4049.4701 3324.7448 L 4049.4701 3324.9548 L 4049.6701 3325.5648 L 4050.0801 3325.9748 L 4050.6901 3326.1748" fill="none"  stroke-width="0.6" c_note="note_pre" /></g><g c_partid="part_pcbtext" c_etype="" c_origin="4025.685,3329.575" c_rotation="90" c_mirror="0" id="gge345" locked="0" layerid="3" c_shapetype="group" display="none"><path c_fontsize="4.5" c_fontfamily="" c_text="5001" d="M 4021.145 3327.1248 L 4021.145 3329.1648 L 4022.985 3329.3748 L 4022.785 3329.1648 L 4022.575 3328.5548 L 4022.575 3327.9348 L 4022.785 3327.3248 L 4023.185 3326.9148 L 4023.805 3326.7148 L 4024.215 3326.7148 L 4024.825 3326.9148 L 4025.235 3327.3248 L 4025.435 3327.9348 L 4025.435 3328.5548 L 4025.235 3329.1648 L 4025.035 3329.3748 L 4024.625 3329.5748 M 4021.145 3324.1348 L 4021.345 3324.7448 L 4021.965 3325.1548 L 4022.985 3325.3648 L 4023.595 3325.3648 L 4024.625 3325.1548 L 4025.235 3324.7448 L 4025.435 3324.1348 L 4025.435 3323.7248 L 4025.235 3323.1148 L 4024.625 3322.7048 L 4023.595 3322.4948 L 4022.985 3322.4948 L 4021.965 3322.7048 L 4021.345 3323.1148 L 4021.145 3323.7248 L 4021.145 3324.1348 M 4021.145 3319.9248 L 4021.345 3320.5348 L 4021.965 3320.9448 L 4022.985 3321.1448 L 4023.595 3321.1448 L 4024.625 3320.9448 L 4025.235 3320.5348 L 4025.435 3319.9248 L 4025.435 3319.5148 L 4025.235 3318.8948 L 4024.625 3318.4848 L 4023.595 3318.2848 L 4022.985 3318.2848 L 4021.965 3318.4848 L 4021.345 3318.8948 L 4021.145 3319.5148 L 4021.145 3319.9248 M 4021.965 3316.9348 L 4021.755 3316.5248 L 4021.145 3315.9148 L 4025.435 3315.9148" fill="none"  stroke-width="0.6" c_note="note_name" /></g><g c_partid="part_pcbtext" c_etype="" c_origin="4032.685,3329.575" c_rotation="90" c_mirror="0" id="gge347" locked="0" layerid="3" c_shapetype="group" display="none"><path c_fontsize="4.5" c_fontfamily="" c_text="J7" d="M 4028.145 3327.5248 L 4031.415 3327.5248 L 4032.035 3327.7348 L 4032.235 3327.9348 L 4032.435 3328.3448 L 4032.435 3328.7548 L 4032.235 3329.1648 L 4032.035 3329.3748 L 4031.415 3329.5748 L 4031.005 3329.5748 M 4028.145 3323.3148 L 4032.435 3325.3648 M 4028.145 3326.1748 L 4028.145 3323.3148" fill="none"  stroke-width="0.6" c_note="note_pre" /></g><g c_partid="part_pcbtext" c_etype="" c_origin="4025.685,3290.205" c_rotation="90" c_mirror="0" id="gge362" locked="0" layerid="3" c_shapetype="group" display="none"><path c_fontsize="4.5" c_fontfamily="" c_text="5001" d="M 4021.145 3287.7547 L 4021.145 3289.7947 L 4022.985 3290.0047 L 4022.785 3289.7947 L 4022.575 3289.1847 L 4022.575 3288.5647 L 4022.785 3287.9547 L 4023.185 3287.5447 L 4023.805 3287.3447 L 4024.215 3287.3447 L 4024.825 3287.5447 L 4025.235 3287.9547 L 4025.435 3288.5647 L 4025.435 3289.1847 L 4025.235 3289.7947 L 4025.035 3290.0047 L 4024.625 3290.2047 M 4021.145 3284.7647 L 4021.345 3285.3747 L 4021.965 3285.7847 L 4022.985 3285.9947 L 4023.595 3285.9947 L 4024.625 3285.7847 L 4025.235 3285.3747 L 4025.435 3284.7647 L 4025.435 3284.3547 L 4025.235 3283.7447 L 4024.625 3283.3347 L 4023.595 3283.1247 L 4022.985 3283.1247 L 4021.965 3283.3347 L 4021.345 3283.7447 L 4021.145 3284.3547 L 4021.145 3284.7647 M 4021.145 3280.5547 L 4021.345 3281.1647 L 4021.965 3281.5747 L 4022.985 3281.7747 L 4023.595 3281.7747 L 4024.625 3281.5747 L 4025.235 3281.1647 L 4025.435 3280.5547 L 4025.435 3280.1447 L 4025.235 3279.5247 L 4024.625 3279.1147 L 4023.595 3278.9147 L 4022.985 3278.9147 L 4021.965 3279.1147 L 4021.345 3279.5247 L 4021.145 3280.1447 L 4021.145 3280.5547 M 4021.965 3277.5647 L 4021.755 3277.1547 L 4021.145 3276.5447 L 4025.435 3276.5447" fill="none"  stroke-width="0.6" c_note="note_name" /></g><g c_partid="part_pcbtext" c_etype="" c_origin="4032.685,3290.205" c_rotation="90" c_mirror="0" id="gge364" locked="0" layerid="3" c_shapetype="group" display="none"><path c_fontsize="4.5" c_fontfamily="" c_text="J8" d="M 4028.145 3288.1547 L 4031.415 3288.1547 L 4032.035 3288.3647 L 4032.235 3288.5647 L 4032.435 3288.9747 L 4032.435 3289.3847 L 4032.235 3289.7947 L 4032.035 3290.0047 L 4031.415 3290.2047 L 4031.005 3290.2047 M 4028.145 3285.7847 L 4028.345 3286.4047 L 4028.755 3286.6047 L 4029.165 3286.6047 L 4029.575 3286.4047 L 4029.785 3285.9947 L 4029.985 3285.1747 L 4030.185 3284.5547 L 4030.595 3284.1547 L 4031.005 3283.9447 L 4031.625 3283.9447 L 4032.035 3284.1547 L 4032.235 3284.3547 L 4032.435 3284.9647 L 4032.435 3285.7847 L 4032.235 3286.4047 L 4032.035 3286.6047 L 4031.625 3286.8047 L 4031.005 3286.8047 L 4030.595 3286.6047 L 4030.185 3286.1947 L 4029.985 3285.5847 L 4029.785 3284.7647 L 4029.575 3284.3547 L 4029.165 3284.1547 L 4028.755 3284.1547 L 4028.345 3284.3547 L 4028.145 3284.9647 L 4028.145 3285.7847" fill="none"  stroke-width="0.6" c_note="note_pre" /></g><g c_partid="part_pcbtext" c_etype="" c_origin="4065.051,3329.58" c_rotation="90" c_mirror="0" id="gge218" locked="0" layerid="3" c_shapetype="group" display="none"><path c_fontsize="4.5" c_fontfamily="" c_text="5001" d="M 4060.5051 3327.1248 L 4060.5051 3329.1748 L 4062.3551 3329.3748 L 4062.1451 3329.1748 L 4061.9451 3328.5548 L 4061.9451 3327.9448 L 4062.1451 3327.3248 L 4062.5551 3326.9248 L 4063.1651 3326.7148 L 4063.5751 3326.7148 L 4064.1951 3326.9248 L 4064.6051 3327.3248 L 4064.8051 3327.9448 L 4064.8051 3328.5548 L 4064.6051 3329.1748 L 4064.3951 3329.3748 L 4063.9851 3329.5748 M 4060.5051 3324.1348 L 4060.7151 3324.7548 L 4061.3251 3325.1648 L 4062.3551 3325.3648 L 4062.9651 3325.3648 L 4063.9851 3325.1648 L 4064.6051 3324.7548 L 4064.8051 3324.1348 L 4064.8051 3323.7248 L 4064.6051 3323.1148 L 4063.9851 3322.7048 L 4062.9651 3322.5048 L 4062.3551 3322.5048 L 4061.3251 3322.7048 L 4060.7151 3323.1148 L 4060.5051 3323.7248 L 4060.5051 3324.1348 M 4060.5051 3319.9248 L 4060.7151 3320.5348 L 4061.3251 3320.9448 L 4062.3551 3321.1548 L 4062.9651 3321.1548 L 4063.9851 3320.9448 L 4064.6051 3320.5348 L 4064.8051 3319.9248 L 4064.8051 3319.5148 L 4064.6051 3318.9048 L 4063.9851 3318.4948 L 4062.9651 3318.2848 L 4062.3551 3318.2848 L 4061.3251 3318.4948 L 4060.7151 3318.9048 L 4060.5051 3319.5148 L 4060.5051 3319.9248 M 4061.3251 3316.9348 L 4061.1251 3316.5248 L 4060.5051 3315.9148 L 4064.8051 3315.9148" fill="none"  stroke-width="0.6" c_note="note_name" /></g><g c_partid="part_pcbtext" c_etype="" c_origin="4072.051,3329.58" c_rotation="90" c_mirror="0" id="gge220" locked="0" layerid="3" c_shapetype="group" display="none"><path c_fontsize="4.5" c_fontfamily="" c_text="J3" d="M 4067.5051 3327.5348 L 4070.7851 3327.5348 L 4071.3951 3327.7348 L 4071.6051 3327.9448 L 4071.8051 3328.3548 L 4071.8051 3328.7648 L 4071.6051 3329.1748 L 4071.3951 3329.3748 L 4070.7851 3329.5748 L 4070.3751 3329.5748 M 4067.5051 3325.7748 L 4067.5051 3323.5248 L 4069.1451 3324.7548 L 4069.1451 3324.1348 L 4069.3551 3323.7248 L 4069.5551 3323.5248 L 4070.1651 3323.3248 L 4070.5751 3323.3248 L 4071.1951 3323.5248 L 4071.6051 3323.9348 L 4071.8051 3324.5448 L 4071.8051 3325.1648 L 4071.6051 3325.7748 L 4071.3951 3325.9748 L 4070.9851 3326.1848" fill="none"  stroke-width="0.6" c_note="note_pre" /></g><g c_partid="part_pcbtext" c_etype="" c_origin="4043.622,3151.937" c_rotation="0" c_mirror="0" id="gge403" locked="0" layerid="3" c_shapetype="group" display="none"><path c_fontsize="4.5" c_fontfamily="" c_text="Banana Plug" d="M 4043.622 3147.397 L 4043.622 3151.687 M 4043.622 3147.397 L 4045.462 3147.397 L 4046.072 3147.597 L 4046.282 3147.807 L 4046.482 3148.217 L 4046.482 3148.627 L 4046.282 3149.037 L 4046.072 3149.237 L 4045.462 3149.437 M 4043.622 3149.437 L 4045.462 3149.437 L 4046.072 3149.647 L 4046.282 3149.847 L 4046.482 3150.257 L 4046.482 3150.877 L 4046.282 3151.287 L 4046.072 3151.487 L 4045.462 3151.687 L 4043.622 3151.687 M 4050.292 3148.827 L 4050.292 3151.687 M 4050.292 3149.437 L 4049.882 3149.037 L 4049.472 3148.827 L 4048.862 3148.827 L 4048.452 3149.037 L 4048.042 3149.437 L 4047.832 3150.057 L 4047.832 3150.467 L 4048.042 3151.077 L 4048.452 3151.487 L 4048.862 3151.687 L 4049.472 3151.687 L 4049.882 3151.487 L 4050.292 3151.077 M 4051.642 3148.827 L 4051.642 3151.687 M 4051.642 3149.647 L 4052.252 3149.037 L 4052.662 3148.827 L 4053.272 3148.827 L 4053.682 3149.037 L 4053.892 3149.647 L 4053.892 3151.687 M 4057.692 3148.827 L 4057.692 3151.687 M 4057.692 3149.437 L 4057.282 3149.037 L 4056.872 3148.827 L 4056.262 3148.827 L 4055.852 3149.037 L 4055.442 3149.437 L 4055.242 3150.057 L 4055.242 3150.467 L 4055.442 3151.077 L 4055.852 3151.487 L 4056.262 3151.687 L 4056.872 3151.687 L 4057.282 3151.487 L 4057.692 3151.077 M 4059.042 3148.827 L 4059.042 3151.687 M 4059.042 3149.647 L 4059.662 3149.037 L 4060.072 3148.827 L 4060.682 3148.827 L 4061.092 3149.037 L 4061.292 3149.647 L 4061.292 3151.687 M 4065.102 3148.827 L 4065.102 3151.687 M 4065.102 3149.437 L 4064.692 3149.037 L 4064.282 3148.827 L 4063.672 3148.827 L 4063.262 3149.037 L 4062.852 3149.437 L 4062.642 3150.057 L 4062.642 3150.467 L 4062.852 3151.077 L 4063.262 3151.487 L 4063.672 3151.687 L 4064.282 3151.687 L 4064.692 3151.487 L 4065.102 3151.077 M 4069.602 3147.397 L 4069.602 3151.687 M 4069.602 3147.397 L 4071.442 3147.397 L 4072.052 3147.597 L 4072.262 3147.807 L 4072.462 3148.217 L 4072.462 3148.827 L 4072.262 3149.237 L 4072.052 3149.437 L 4071.442 3149.647 L 4069.602 3149.647 M 4073.812 3147.397 L 4073.812 3151.687 M 4075.162 3148.827 L 4075.162 3150.877 L 4075.372 3151.487 L 4075.772 3151.687 L 4076.392 3151.687 L 4076.802 3151.487 L 4077.412 3150.877 M 4077.412 3148.827 L 4077.412 3151.687 M 4081.222 3148.827 L 4081.222 3152.097 L 4081.012 3152.717 L 4080.812 3152.917 L 4080.402 3153.127 L 4079.782 3153.127 L 4079.372 3152.917 M 4081.222 3149.437 L 4080.812 3149.037 L 4080.402 3148.827 L 4079.782 3148.827 L 4079.372 3149.037 L 4078.972 3149.437 L 4078.762 3150.057 L 4078.762 3150.467 L 4078.972 3151.077 L 4079.372 3151.487 L 4079.782 3151.687 L 4080.402 3151.687 L 4080.812 3151.487 L 4081.222 3151.077" fill="none"  stroke-width="0.6" c_note="note_name" /></g><g c_partid="part_pcbtext" c_etype="" c_origin="4043.622,3158.937" c_rotation="0" c_mirror="0" id="gge405" locked="0" layerid="3" c_shapetype="group" display="none"><path c_fontsize="4.5" c_fontfamily="" c_text="J10" d="M 4045.672 3154.397 L 4045.672 3157.667 L 4045.462 3158.287 L 4045.262 3158.487 L 4044.852 3158.687 L 4044.442 3158.687 L 4044.032 3158.487 L 4043.822 3158.287 L 4043.622 3157.667 L 4043.622 3157.257 M 4047.022 3155.217 L 4047.422 3155.007 L 4048.042 3154.397 L 4048.042 3158.687 M 4050.622 3154.397 L 4050.002 3154.597 L 4049.592 3155.217 L 4049.392 3156.237 L 4049.392 3156.847 L 4049.592 3157.877 L 4050.002 3158.487 L 4050.622 3158.687 L 4051.022 3158.687 L 4051.642 3158.487 L 4052.052 3157.877 L 4052.252 3156.847 L 4052.252 3156.237 L 4052.052 3155.217 L 4051.642 3154.597 L 4051.022 3154.397 L 4050.622 3154.397" fill="none"  stroke-width="0.6" c_note="note_pre" /></g><g c_partid="part_pcbtext" c_etype="" c_origin="4075.114,3210.997" c_rotation="0" c_mirror="0" id="gge235" locked="0" layerid="3" c_shapetype="group" display="none"><path c_fontsize="4.5" c_fontfamily="" c_text="Banana Plug" d="M 4075.1181 3206.4522 L 4075.1181 3210.7522 M 4075.1181 3206.4522 L 4076.9581 3206.4522 L 4077.5681 3206.6622 L 4077.7681 3206.8622 L 4077.9781 3207.2722 L 4077.9781 3207.6822 L 4077.7681 3208.0922 L 4077.5681 3208.2922 L 4076.9581 3208.5022 M 4075.1181 3208.5022 L 4076.9581 3208.5022 L 4077.5681 3208.7022 L 4077.7681 3208.9122 L 4077.9781 3209.3222 L 4077.9781 3209.9322 L 4077.7681 3210.3422 L 4077.5681 3210.5422 L 4076.9581 3210.7522 L 4075.1181 3210.7522 M 4081.7781 3207.8922 L 4081.7781 3210.7522 M 4081.7781 3208.5022 L 4081.3681 3208.0922 L 4080.9681 3207.8922 L 4080.3481 3207.8922 L 4079.9381 3208.0922 L 4079.5281 3208.5022 L 4079.3281 3209.1122 L 4079.3281 3209.5222 L 4079.5281 3210.1422 L 4079.9381 3210.5422 L 4080.3481 3210.7522 L 4080.9681 3210.7522 L 4081.3681 3210.5422 L 4081.7781 3210.1422 M 4083.1281 3207.8922 L 4083.1281 3210.7522 M 4083.1281 3208.7022 L 4083.7481 3208.0922 L 4084.1581 3207.8922 L 4084.7681 3207.8922 L 4085.1781 3208.0922 L 4085.3781 3208.7022 L 4085.3781 3210.7522 M 4089.1881 3207.8922 L 4089.1881 3210.7522 M 4089.1881 3208.5022 L 4088.7781 3208.0922 L 4088.3681 3207.8922 L 4087.7581 3207.8922 L 4087.3481 3208.0922 L 4086.9381 3208.5022 L 4086.7281 3209.1122 L 4086.7281 3209.5222 L 4086.9381 3210.1422 L 4087.3481 3210.5422 L 4087.7581 3210.7522 L 4088.3681 3210.7522 L 4088.7781 3210.5422 L 4089.1881 3210.1422 M 4090.5381 3207.8922 L 4090.5381 3210.7522 M 4090.5381 3208.7022 L 4091.1481 3208.0922 L 4091.5581 3207.8922 L 4092.1681 3207.8922 L 4092.5781 3208.0922 L 4092.7881 3208.7022 L 4092.7881 3210.7522 M 4096.5881 3207.8922 L 4096.5881 3210.7522 M 4096.5881 3208.5022 L 4096.1781 3208.0922 L 4095.7681 3207.8922 L 4095.1581 3207.8922 L 4094.7481 3208.0922 L 4094.3381 3208.5022 L 4094.1381 3209.1122 L 4094.1381 3209.5222 L 4094.3381 3210.1422 L 4094.7481 3210.5422 L 4095.1581 3210.7522 L 4095.7681 3210.7522 L 4096.1781 3210.5422 L 4096.5881 3210.1422 M 4101.0881 3206.4522 L 4101.0881 3210.7522 M 4101.0881 3206.4522 L 4102.9281 3206.4522 L 4103.5481 3206.6622 L 4103.7481 3206.8622 L 4103.9581 3207.2722 L 4103.9581 3207.8922 L 4103.7481 3208.2922 L 4103.5481 3208.5022 L 4102.9281 3208.7022 L 4101.0881 3208.7022 M 4105.3081 3206.4522 L 4105.3081 3210.7522 M 4106.6581 3207.8922 L 4106.6581 3209.9322 L 4106.8581 3210.5422 L 4107.2681 3210.7522 L 4107.8781 3210.7522 L 4108.2881 3210.5422 L 4108.9081 3209.9322 M 4108.9081 3207.8922 L 4108.9081 3210.7522 M 4112.7081 3207.8922 L 4112.7081 3211.1622 L 4112.5081 3211.7722 L 4112.2981 3211.9822 L 4111.8881 3212.1822 L 4111.2781 3212.1822 L 4110.8681 3211.9822 M 4112.7081 3208.5022 L 4112.2981 3208.0922 L 4111.8881 3207.8922 L 4111.2781 3207.8922 L 4110.8681 3208.0922 L 4110.4581 3208.5022 L 4110.2581 3209.1122 L 4110.2581 3209.5222 L 4110.4581 3210.1422 L 4110.8681 3210.5422 L 4111.2781 3210.7522 L 4111.8881 3210.7522 L 4112.2981 3210.5422 L 4112.7081 3210.1422" fill="none"  stroke-width="0.6" c_note="note_name" /></g><g c_partid="part_pcbtext" c_etype="" c_origin="4075.114,3217.997" c_rotation="0" c_mirror="0" id="gge237" locked="0" layerid="3" c_shapetype="group" display="none"><path c_fontsize="4.5" c_fontfamily="" c_text="J9" d="M 4077.1581 3213.4522 L 4077.1581 3216.7322 L 4076.9581 3217.3422 L 4076.7481 3217.5422 L 4076.3381 3217.7522 L 4075.9281 3217.7522 L 4075.5181 3217.5422 L 4075.3181 3217.3422 L 4075.1181 3216.7322 L 4075.1181 3216.3222 M 4081.1681 3214.8922 L 4080.9681 3215.5022 L 4080.5581 3215.9122 L 4079.9381 3216.1122 L 4079.7381 3216.1122 L 4079.1181 3215.9122 L 4078.7181 3215.5022 L 4078.5081 3214.8922 L 4078.5081 3214.6822 L 4078.7181 3214.0722 L 4079.1181 3213.6622 L 4079.7381 3213.4522 L 4079.9381 3213.4522 L 4080.5581 3213.6622 L 4080.9681 3214.0722 L 4081.1681 3214.8922 L 4081.1681 3215.9122 L 4080.9681 3216.9322 L 4080.5581 3217.5422 L 4079.9381 3217.7522 L 4079.5281 3217.7522 L 4078.9181 3217.5422 L 4078.7181 3217.1422" fill="none"  stroke-width="0.6" c_note="note_pre" /></g><circle cx="4079.055" cy="3290.205" r="5" stroke-width="1" fill="none" layerid="3" id="gge298" locked="0"  /><circle cx="4059.37" cy="3290.205" r="5" stroke-width="1" fill="none" layerid="3" id="gge315" locked="0"  /><circle cx="4059.37" cy="3329.575" r="5" stroke-width="1" fill="none" layerid="3" id="gge332" locked="0"  /><circle cx="4039.685" cy="3329.575" r="5" stroke-width="1" fill="none" layerid="3" id="gge349" locked="0"  /><circle cx="4039.685" cy="3290.205" r="5" stroke-width="1" fill="none" layerid="3" id="gge366" locked="0"  /><circle cx="4079.055" cy="3329.575" r="5" stroke-width="1" fill="none" layerid="3" id="gge377" locked="0"  /><circle cx="4043.622" cy="3182.437" r="21.654" stroke-width="1" fill="none" layerid="3" id="gge407" locked="0"  /><circle cx="4075.118" cy="3241.492" r="21.654" stroke-width="1" fill="none" layerid="3" id="gge413" locked="0"  /><polyline points="4098.7402 3097.2913 4098.7402 3416.189" stroke-width="1"  stroke-linecap="round" fill="none" layerid="10" net="" id="gge691" locked="0" /><polyline points="4020 3416.189 4020 3097.2913" stroke-width="1"  stroke-linecap="round" fill="none" layerid="10" net="" id="gge448" locked="0" /><polyline points="4086.9291 3428 4031.811 3428" stroke-width="1"  stroke-linecap="round" fill="none" layerid="10" net="" id="gge446" locked="0" /><polyline points="4031.811 3085.4803 4086.9291 3085.4803" stroke-width="1"  stroke-linecap="round" fill="none" layerid="10" net="" id="gge442" locked="0" /><path d="M4086.9291 3085.4803A11.811 11.811 0 0 1 4098.7402 3097.2913" locked="0"  fill="none" stroke-width="1" c_helper_type="arc2" net="" layerid="10" id="gge443" /><path d="M4098.7402 3416.189A11.811 11.811 0 0 1 4086.9291 3428" locked="0"  fill="none" stroke-width="1" c_helper_type="arc2" net="" layerid="10" id="gge445" /><path d="M4031.811 3428A11.811 11.811 0 0 1 4020 3416.189" locked="0"  fill="none" stroke-width="1" c_helper_type="arc2" net="" layerid="10" id="gge447" /><path d="M4020 3097.2913A11.811 11.811 0 0 1 4031.811 3085.4803" locked="0"  fill="none" stroke-width="1" c_helper_type="arc2" net="" layerid="10" id="gge449" /></svg>